%TF.GenerationSoftware,KiCad,Pcbnew,9.0.0*%
%TF.CreationDate,2025-05-20T18:18:11-06:00*%
%TF.ProjectId,GB_Card32k,47425f43-6172-4643-9332-6b2e6b696361,rev?*%
%TF.SameCoordinates,Original*%
%TF.FileFunction,Copper,L1,Top*%
%TF.FilePolarity,Positive*%
%FSLAX46Y46*%
G04 Gerber Fmt 4.6, Leading zero omitted, Abs format (unit mm)*
G04 Created by KiCad (PCBNEW 9.0.0) date 2025-05-20 18:18:11*
%MOMM*%
%LPD*%
G01*
G04 APERTURE LIST*
G04 Aperture macros list*
%AMRoundRect*
0 Rectangle with rounded corners*
0 $1 Rounding radius*
0 $2 $3 $4 $5 $6 $7 $8 $9 X,Y pos of 4 corners*
0 Add a 4 corners polygon primitive as box body*
4,1,4,$2,$3,$4,$5,$6,$7,$8,$9,$2,$3,0*
0 Add four circle primitives for the rounded corners*
1,1,$1+$1,$2,$3*
1,1,$1+$1,$4,$5*
1,1,$1+$1,$6,$7*
1,1,$1+$1,$8,$9*
0 Add four rect primitives between the rounded corners*
20,1,$1+$1,$2,$3,$4,$5,0*
20,1,$1+$1,$4,$5,$6,$7,0*
20,1,$1+$1,$6,$7,$8,$9,0*
20,1,$1+$1,$8,$9,$2,$3,0*%
G04 Aperture macros list end*
%TA.AperFunction,SMDPad,CuDef*%
%ADD10RoundRect,0.237500X-0.237500X0.250000X-0.237500X-0.250000X0.237500X-0.250000X0.237500X0.250000X0*%
%TD*%
%TA.AperFunction,SMDPad,CuDef*%
%ADD11RoundRect,0.150000X-0.150000X-0.587500X0.150000X-0.587500X0.150000X0.587500X-0.150000X0.587500X0*%
%TD*%
%TA.AperFunction,SMDPad,CuDef*%
%ADD12RoundRect,0.150000X-0.587500X-0.150000X0.587500X-0.150000X0.587500X0.150000X-0.587500X0.150000X0*%
%TD*%
%TA.AperFunction,SMDPad,CuDef*%
%ADD13R,1.000000X6.000000*%
%TD*%
%TA.AperFunction,SMDPad,CuDef*%
%ADD14R,1.000000X5.500000*%
%TD*%
%TA.AperFunction,SMDPad,CuDef*%
%ADD15RoundRect,0.237500X0.300000X0.237500X-0.300000X0.237500X-0.300000X-0.237500X0.300000X-0.237500X0*%
%TD*%
%TA.AperFunction,ViaPad*%
%ADD16C,0.600000*%
%TD*%
%TA.AperFunction,Conductor*%
%ADD17C,0.250000*%
%TD*%
%TA.AperFunction,Conductor*%
%ADD18C,0.500000*%
%TD*%
G04 APERTURE END LIST*
D10*
%TO.P,R2,2*%
%TO.N,RD*%
X163500000Y-104272500D03*
%TO.P,R2,1*%
%TO.N,VCC*%
X163500000Y-102447500D03*
%TD*%
D11*
%TO.P,U1,32,VCC*%
%TO.N,VCC*%
X156040000Y-96162500D03*
%TO.P,U1,31,PGM*%
%TO.N,WR*%
X157310000Y-96162500D03*
%TO.P,U1,30,NC*%
%TO.N,GND*%
X158580000Y-96162500D03*
D12*
%TO.P,U1,29,A14*%
%TO.N,A14*%
X160332500Y-97920000D03*
%TO.P,U1,28,A13*%
%TO.N,A13*%
X160332500Y-99190000D03*
%TO.P,U1,27,A8*%
%TO.N,A8*%
X160332500Y-100460000D03*
%TO.P,U1,26,A9*%
%TO.N,A9*%
X160332500Y-101730000D03*
%TO.P,U1,25,A11*%
%TO.N,A11*%
X160332500Y-103000000D03*
%TO.P,U1,24,OE*%
%TO.N,RD*%
X160332500Y-104270000D03*
%TO.P,U1,23,A10*%
%TO.N,A10*%
X160332500Y-105540000D03*
%TO.P,U1,22,CE*%
%TO.N,A15*%
X160332500Y-106810000D03*
%TO.P,U1,21,D7*%
%TO.N,D7*%
X160332500Y-108080000D03*
D11*
%TO.P,U1,20,D6*%
%TO.N,D6*%
X158580000Y-109837500D03*
%TO.P,U1,19,D5*%
%TO.N,D5*%
X157310000Y-109837500D03*
%TO.P,U1,18,D4*%
%TO.N,D4*%
X156040000Y-109837500D03*
%TO.P,U1,17,D3*%
%TO.N,D3*%
X154770000Y-109837500D03*
%TO.P,U1,16,GND*%
%TO.N,GND*%
X153500000Y-109837500D03*
%TO.P,U1,15,D2*%
%TO.N,D2*%
X152230000Y-109837500D03*
%TO.P,U1,14,D1*%
%TO.N,D1*%
X150960000Y-109837500D03*
D12*
%TO.P,U1,13,D0*%
%TO.N,D0*%
X149207500Y-108080000D03*
%TO.P,U1,12,A0*%
%TO.N,A0*%
X149207500Y-106810000D03*
%TO.P,U1,11,A1*%
%TO.N,A1*%
X149207500Y-105540000D03*
%TO.P,U1,10,A2*%
%TO.N,A2*%
X149207500Y-104270000D03*
%TO.P,U1,9,A3*%
%TO.N,A3*%
X149207500Y-103000000D03*
%TO.P,U1,8,A4*%
%TO.N,A4*%
X149207500Y-101730000D03*
%TO.P,U1,7,A5*%
%TO.N,A5*%
X149207500Y-100460000D03*
%TO.P,U1,6,A6*%
%TO.N,A6*%
X149207500Y-99190000D03*
%TO.P,U1,5,A7*%
%TO.N,A7*%
X149207500Y-97920000D03*
D11*
%TO.P,U1,4,A12*%
%TO.N,A12*%
X150960000Y-96162500D03*
%TO.P,U1,3,A15*%
%TO.N,A15*%
X152230000Y-96162500D03*
%TO.P,U1,2,A16*%
%TO.N,GND*%
X153500000Y-96162500D03*
%TO.P,U1,1,NC*%
X154770000Y-96162500D03*
%TD*%
D13*
%TO.P,J1,1,VCC*%
%TO.N,VCC*%
X121250000Y-125500000D03*
D14*
%TO.P,J1,2,CLK*%
%TO.N,unconnected-(J1-CLK-Pad2)*%
X122750000Y-125250000D03*
%TO.P,J1,3,~{WR}*%
%TO.N,WR*%
X124250000Y-125250000D03*
%TO.P,J1,4,~{RD}*%
%TO.N,RD*%
X125750000Y-125250000D03*
%TO.P,J1,5,~{CS}*%
%TO.N,unconnected-(J1-~{CS}-Pad5)*%
X127250000Y-125250000D03*
%TO.P,J1,6,A0*%
%TO.N,A0*%
X128750000Y-125250000D03*
%TO.P,J1,7,A1*%
%TO.N,A1*%
X130250000Y-125250000D03*
%TO.P,J1,8,A2*%
%TO.N,A2*%
X131750000Y-125250000D03*
%TO.P,J1,9,A3*%
%TO.N,A3*%
X133250000Y-125250000D03*
%TO.P,J1,10,A4*%
%TO.N,A4*%
X134750000Y-125250000D03*
%TO.P,J1,11,A5*%
%TO.N,A5*%
X136250000Y-125250000D03*
%TO.P,J1,12,A6*%
%TO.N,A6*%
X137750000Y-125250000D03*
%TO.P,J1,13,A7*%
%TO.N,A7*%
X139250000Y-125250000D03*
%TO.P,J1,14,A8*%
%TO.N,A8*%
X140750000Y-125250000D03*
%TO.P,J1,15,A9*%
%TO.N,A9*%
X142250000Y-125250000D03*
%TO.P,J1,16,A10*%
%TO.N,A10*%
X143750000Y-125250000D03*
%TO.P,J1,17,A11*%
%TO.N,A11*%
X145250000Y-125250000D03*
%TO.P,J1,18,A12*%
%TO.N,A12*%
X146750000Y-125250000D03*
%TO.P,J1,19,A13*%
%TO.N,A13*%
X148250000Y-125250000D03*
%TO.P,J1,20,A14*%
%TO.N,A14*%
X149750000Y-125250000D03*
%TO.P,J1,21,A15*%
%TO.N,A15*%
X151250000Y-125250000D03*
%TO.P,J1,22,D0*%
%TO.N,D0*%
X152750000Y-125250000D03*
%TO.P,J1,23,D1*%
%TO.N,D1*%
X154250000Y-125250000D03*
%TO.P,J1,24,D2*%
%TO.N,D2*%
X155750000Y-125250000D03*
%TO.P,J1,25,D3*%
%TO.N,D3*%
X157250000Y-125250000D03*
%TO.P,J1,26,D4*%
%TO.N,D4*%
X158750000Y-125250000D03*
%TO.P,J1,27,D5*%
%TO.N,D5*%
X160250000Y-125250000D03*
%TO.P,J1,28,D6*%
%TO.N,D6*%
X161750000Y-125250000D03*
%TO.P,J1,29,D7*%
%TO.N,D7*%
X163250000Y-125250000D03*
%TO.P,J1,30,RST*%
%TO.N,unconnected-(J1-RST-Pad30)*%
X164750000Y-125250000D03*
%TO.P,J1,31,AIN*%
%TO.N,unconnected-(J1-AIN-Pad31)*%
X166250000Y-125250000D03*
D13*
%TO.P,J1,32,VSS*%
%TO.N,GND*%
X167750000Y-125500000D03*
%TD*%
D10*
%TO.P,R1,1*%
%TO.N,VCC*%
X157320000Y-92087500D03*
%TO.P,R1,2*%
%TO.N,WR*%
X157320000Y-93912500D03*
%TD*%
D15*
%TO.P,C1,1*%
%TO.N,GND*%
X165225000Y-95000000D03*
%TO.P,C1,2*%
%TO.N,VCC*%
X163500000Y-95000000D03*
%TD*%
D16*
%TO.N,GND*%
X167750000Y-118500000D03*
X167750000Y-120500000D03*
%TO.N,WR*%
X156150000Y-93750000D03*
X153000000Y-93600000D03*
%TO.N,GND*%
X153750000Y-88500000D03*
X135750000Y-88500000D03*
X129000000Y-90250000D03*
X124500000Y-94250000D03*
X167750000Y-103750000D03*
X167750000Y-105750000D03*
X167750000Y-107750000D03*
X161250000Y-96500000D03*
X160000000Y-94000000D03*
X159250000Y-94000000D03*
X158500000Y-94000000D03*
X160000000Y-94750000D03*
X159250000Y-94750000D03*
X158500000Y-94750000D03*
X167500000Y-96000000D03*
X167500000Y-95000000D03*
X167500000Y-94000000D03*
X166500000Y-96000000D03*
X166500000Y-94000000D03*
X166500000Y-95000000D03*
X166250000Y-121000000D03*
X164750000Y-121000000D03*
X167750000Y-119500000D03*
X168500000Y-87000000D03*
X120500000Y-98000000D03*
X120750000Y-87250000D03*
X135500000Y-95750000D03*
X129800000Y-101800000D03*
X128000000Y-103500000D03*
X123750000Y-107500000D03*
X123000000Y-113000000D03*
X123000000Y-119750000D03*
X134500000Y-106750000D03*
X130500000Y-112500000D03*
X125750000Y-116000000D03*
X125750000Y-111000000D03*
X130500000Y-106250000D03*
X134500000Y-102250000D03*
X144000000Y-95000000D03*
X144000000Y-96750000D03*
X146000000Y-96750000D03*
X142000000Y-96750000D03*
X142000000Y-95000000D03*
X146000000Y-95000000D03*
X154400000Y-94750000D03*
X153500000Y-94750000D03*
X154750000Y-98250000D03*
X153500000Y-98250000D03*
X154750000Y-97500000D03*
X153500000Y-97500000D03*
X154750000Y-104250000D03*
X153750000Y-103500000D03*
X153750000Y-116250000D03*
X153750000Y-117500000D03*
X154250000Y-107500000D03*
X153500000Y-107500000D03*
X152750000Y-107500000D03*
X154250000Y-108250000D03*
X152750000Y-108250000D03*
X153500000Y-108250000D03*
%TO.N,A14*%
X150250000Y-115750000D03*
X156750000Y-98250000D03*
%TO.N,A13*%
X149000000Y-116000000D03*
X155750000Y-99500000D03*
%TO.N,A12*%
X147875000Y-115875000D03*
X151000000Y-107250000D03*
%TO.N,A9*%
X142000000Y-116750000D03*
X155000000Y-101500000D03*
%TO.N,A8*%
X140500000Y-116500000D03*
%TO.N,A0*%
X139000000Y-115500000D03*
%TO.N,A8*%
X154040000Y-100460000D03*
%TO.N,A11*%
X146500000Y-116875000D03*
X158000000Y-103000000D03*
%TO.N,RD*%
X158500000Y-104500000D03*
X126000000Y-119500000D03*
%TO.N,A10*%
X144000000Y-119000000D03*
X165500000Y-119000000D03*
%TO.N,A15*%
X151500000Y-121000000D03*
X164500000Y-119500000D03*
%TO.N,A7*%
X139500000Y-99500000D03*
%TO.N,A6*%
X138000000Y-102500000D03*
%TO.N,A5*%
X136500000Y-105500000D03*
%TO.N,A4*%
X135000000Y-108500000D03*
%TO.N,A3*%
X134000000Y-111000000D03*
%TO.N,A2*%
X132000000Y-113500000D03*
%TO.N,A1*%
X130500000Y-114500000D03*
%TO.N,A0*%
X129000000Y-115500000D03*
%TO.N,A7*%
X147500000Y-98000000D03*
%TO.N,A6*%
X146000000Y-99500000D03*
%TO.N,A5*%
X145000000Y-100500000D03*
%TO.N,A4*%
X143000000Y-102000000D03*
%TO.N,A3*%
X141500000Y-103500000D03*
%TO.N,A2*%
X139000000Y-107000000D03*
%TO.N,A1*%
X139000000Y-114500000D03*
%TO.N,GND*%
X161250000Y-95500000D03*
%TD*%
D17*
%TO.N,WR*%
X153000000Y-93600000D02*
X152687500Y-93912500D01*
X152687500Y-93912500D02*
X141337500Y-93912500D01*
X141337500Y-93912500D02*
X124250000Y-111000000D01*
X124250000Y-111000000D02*
X124250000Y-125250000D01*
X156150000Y-93750000D02*
X157157500Y-93750000D01*
X157157500Y-93750000D02*
X157320000Y-93912500D01*
D18*
%TO.N,VCC*%
X156040000Y-96162500D02*
X156040000Y-94820625D01*
X156040000Y-94820625D02*
X155200000Y-93980625D01*
X155200000Y-93980625D02*
X155200000Y-92000000D01*
D17*
%TO.N,A14*%
X150250000Y-115750000D02*
X149750000Y-116250000D01*
X160332500Y-97920000D02*
X157080000Y-97920000D01*
X157080000Y-97920000D02*
X156750000Y-98250000D01*
X149750000Y-116250000D02*
X149750000Y-125250000D01*
%TO.N,A13*%
X155750000Y-99500000D02*
X156060000Y-99190000D01*
X156060000Y-99190000D02*
X160332500Y-99190000D01*
%TO.N,D0*%
X149207500Y-108080000D02*
X149207500Y-111207500D01*
X149207500Y-111207500D02*
X151250000Y-113250000D01*
X152750000Y-120750000D02*
X152750000Y-125250000D01*
X151250000Y-113250000D02*
X151250000Y-119250000D01*
X151250000Y-119250000D02*
X152750000Y-120750000D01*
%TO.N,D1*%
X150960000Y-109837500D02*
X150960000Y-110398750D01*
X152000000Y-118500000D02*
X154250000Y-120750000D01*
X150960000Y-110398750D02*
X152000000Y-111438750D01*
X152000000Y-111438750D02*
X152000000Y-118500000D01*
X154250000Y-120750000D02*
X154250000Y-125250000D01*
%TO.N,D2*%
X152230000Y-109837500D02*
X152230000Y-110480000D01*
X152230000Y-110480000D02*
X152750000Y-111000000D01*
X152750000Y-111000000D02*
X152750000Y-117973211D01*
X152750000Y-117973211D02*
X155750000Y-120973211D01*
X155750000Y-120973211D02*
X155750000Y-125250000D01*
%TO.N,A13*%
X149000000Y-116000000D02*
X148250000Y-116750000D01*
X148250000Y-116750000D02*
X148250000Y-125250000D01*
%TO.N,A12*%
X147875000Y-115875000D02*
X147500000Y-116250000D01*
X147500000Y-116250000D02*
X147500000Y-118750000D01*
X147500000Y-118750000D02*
X146750000Y-119500000D01*
X146750000Y-119500000D02*
X146750000Y-125250000D01*
%TO.N,A11*%
X146500000Y-116875000D02*
X146375000Y-116875000D01*
X146375000Y-116875000D02*
X145250000Y-118000000D01*
X145250000Y-118000000D02*
X145250000Y-125250000D01*
%TO.N,WR*%
X157310000Y-96162500D02*
X157310000Y-93922500D01*
X157310000Y-93922500D02*
X157320000Y-93912500D01*
%TO.N,A12*%
X150960000Y-107210000D02*
X151000000Y-107250000D01*
X150960000Y-96162500D02*
X150960000Y-107210000D01*
%TO.N,A9*%
X142000000Y-116750000D02*
X142250000Y-117000000D01*
X142250000Y-117000000D02*
X142250000Y-125250000D01*
X155230000Y-101730000D02*
X155000000Y-101500000D01*
X160332500Y-101730000D02*
X155230000Y-101730000D01*
%TO.N,A0*%
X139000000Y-115500000D02*
X139500000Y-115500000D01*
X139500000Y-115500000D02*
X140000000Y-115000000D01*
X140000000Y-115000000D02*
X140000000Y-109500000D01*
X140000000Y-109500000D02*
X142690000Y-106810000D01*
X142690000Y-106810000D02*
X149207500Y-106810000D01*
%TO.N,A8*%
X140500000Y-116500000D02*
X140750000Y-116750000D01*
X140750000Y-116750000D02*
X140750000Y-125250000D01*
%TO.N,A7*%
X139500000Y-99500000D02*
X139500000Y-104000000D01*
X139500000Y-104000000D02*
X138374000Y-105126000D01*
X138374000Y-105126000D02*
X138374000Y-119624000D01*
X138374000Y-119624000D02*
X139250000Y-120500000D01*
X139250000Y-120500000D02*
X139250000Y-125250000D01*
%TO.N,A6*%
X138000000Y-102500000D02*
X137500000Y-103000000D01*
X137500000Y-103000000D02*
X137500000Y-120000000D01*
X137500000Y-120000000D02*
X137750000Y-120250000D01*
X137750000Y-120250000D02*
X137750000Y-125250000D01*
%TO.N,A8*%
X160332500Y-100460000D02*
X154040000Y-100460000D01*
X154000000Y-100500000D02*
X154040000Y-100460000D01*
%TO.N,A11*%
X160332500Y-103000000D02*
X158000000Y-103000000D01*
%TO.N,A10*%
X165500000Y-119000000D02*
X165500000Y-109500000D01*
X165500000Y-109500000D02*
X161540000Y-105540000D01*
X161540000Y-105540000D02*
X160332500Y-105540000D01*
%TO.N,RD*%
X158730000Y-104270000D02*
X158500000Y-104500000D01*
X126000000Y-119500000D02*
X125750000Y-119750000D01*
X160332500Y-104270000D02*
X158730000Y-104270000D01*
X125750000Y-119750000D02*
X125750000Y-125250000D01*
X163500000Y-104272500D02*
X160335000Y-104272500D01*
X160335000Y-104272500D02*
X160332500Y-104270000D01*
%TO.N,A15*%
X152230000Y-96162500D02*
X152230000Y-100230000D01*
X152230000Y-100230000D02*
X158810000Y-106810000D01*
X158810000Y-106810000D02*
X160332500Y-106810000D01*
%TO.N,A10*%
X144000000Y-119000000D02*
X143750000Y-119250000D01*
X143750000Y-119250000D02*
X143750000Y-125250000D01*
%TO.N,A15*%
X161810000Y-106810000D02*
X164500000Y-109500000D01*
X160332500Y-106810000D02*
X161810000Y-106810000D01*
X164500000Y-109500000D02*
X164500000Y-119500000D01*
X151500000Y-121000000D02*
X151250000Y-121250000D01*
X151250000Y-121250000D02*
X151250000Y-125250000D01*
%TO.N,A2*%
X132000000Y-113500000D02*
X132000000Y-120000000D01*
X132000000Y-120000000D02*
X131750000Y-120250000D01*
X131750000Y-120250000D02*
X131750000Y-125250000D01*
%TO.N,A5*%
X136500000Y-105500000D02*
X136250000Y-105750000D01*
X136250000Y-105750000D02*
X136250000Y-125250000D01*
%TO.N,A4*%
X135000000Y-108500000D02*
X134750000Y-108750000D01*
X134750000Y-108750000D02*
X134750000Y-125250000D01*
%TO.N,A1*%
X130500000Y-114500000D02*
X130250000Y-114750000D01*
X130250000Y-114750000D02*
X130250000Y-125250000D01*
%TO.N,A0*%
X128750000Y-115750000D02*
X128750000Y-125250000D01*
X129000000Y-115500000D02*
X128750000Y-115750000D01*
%TO.N,A7*%
X147580000Y-97920000D02*
X147500000Y-98000000D01*
X149207500Y-97920000D02*
X147580000Y-97920000D01*
%TO.N,A6*%
X146310000Y-99190000D02*
X146000000Y-99500000D01*
X149207500Y-99190000D02*
X146310000Y-99190000D01*
%TO.N,A5*%
X145040000Y-100460000D02*
X145000000Y-100500000D01*
X149207500Y-100460000D02*
X145040000Y-100460000D01*
%TO.N,A4*%
X143270000Y-101730000D02*
X143000000Y-102000000D01*
X149207500Y-101730000D02*
X143270000Y-101730000D01*
%TO.N,A3*%
X142000000Y-103000000D02*
X141500000Y-103500000D01*
X149207500Y-103000000D02*
X142000000Y-103000000D01*
%TO.N,A2*%
X141730000Y-104270000D02*
X139000000Y-107000000D01*
X149207500Y-104270000D02*
X141730000Y-104270000D01*
%TO.N,A1*%
X139000000Y-109000000D02*
X139000000Y-114500000D01*
X149207500Y-105540000D02*
X142460000Y-105540000D01*
X142460000Y-105540000D02*
X139000000Y-109000000D01*
%TO.N,D3*%
X154770000Y-109837500D02*
X154770000Y-118270000D01*
X154770000Y-118270000D02*
X157250000Y-120750000D01*
X157250000Y-120750000D02*
X157250000Y-125250000D01*
%TO.N,D4*%
X156040000Y-109837500D02*
X156040000Y-118040000D01*
X156040000Y-118040000D02*
X158750000Y-120750000D01*
X158750000Y-120750000D02*
X158750000Y-125250000D01*
%TO.N,D5*%
X157310000Y-109837500D02*
X157310000Y-117810000D01*
X157310000Y-117810000D02*
X160250000Y-120750000D01*
X160250000Y-120750000D02*
X160250000Y-125250000D01*
%TO.N,D7*%
X160332500Y-108080000D02*
X163250000Y-110997500D01*
X163250000Y-110997500D02*
X163250000Y-125250000D01*
%TO.N,D6*%
X158580000Y-109837500D02*
X161750000Y-113007500D01*
X161750000Y-113007500D02*
X161750000Y-125250000D01*
%TO.N,A3*%
X134000000Y-111000000D02*
X133500000Y-111000000D01*
X133250000Y-111250000D02*
X133250000Y-125250000D01*
X133500000Y-111000000D02*
X133250000Y-111250000D01*
%TD*%
%TA.AperFunction,Conductor*%
%TO.N,VCC*%
G36*
X163765677Y-91269685D02*
G01*
X163786319Y-91286319D01*
X164213681Y-91713681D01*
X164247166Y-91775004D01*
X164250000Y-91801362D01*
X164250000Y-94433278D01*
X164243706Y-94472282D01*
X164197326Y-94612247D01*
X164197325Y-94612248D01*
X164187000Y-94713315D01*
X164187000Y-95286669D01*
X164187001Y-95286687D01*
X164197325Y-95387752D01*
X164197326Y-95387755D01*
X164221639Y-95461124D01*
X164241061Y-95519737D01*
X164243706Y-95527717D01*
X164250000Y-95566721D01*
X164250000Y-102698638D01*
X164230315Y-102765677D01*
X164213681Y-102786319D01*
X164036319Y-102963681D01*
X163974996Y-102997166D01*
X163948638Y-103000000D01*
X163051362Y-103000000D01*
X162984323Y-102980315D01*
X162963681Y-102963681D01*
X162536319Y-102536319D01*
X162502834Y-102474996D01*
X162500000Y-102448638D01*
X162500000Y-93250000D01*
X161750000Y-92500000D01*
X161749999Y-92500000D01*
X134648310Y-92807974D01*
X134648309Y-92807974D01*
X121750000Y-105885427D01*
X121750000Y-122440826D01*
X121749572Y-122448798D01*
X121749678Y-122448804D01*
X121749500Y-122452128D01*
X121749500Y-128047863D01*
X121749679Y-128051180D01*
X121749572Y-128051185D01*
X121750000Y-128059156D01*
X121750000Y-128375500D01*
X121730315Y-128442539D01*
X121677511Y-128488294D01*
X121626000Y-128499500D01*
X120874000Y-128499500D01*
X120806961Y-128479815D01*
X120761206Y-128427011D01*
X120750000Y-128375500D01*
X120750000Y-100301362D01*
X120769685Y-100234323D01*
X120786319Y-100213681D01*
X129713681Y-91286319D01*
X129775004Y-91252834D01*
X129801362Y-91250000D01*
X163698638Y-91250000D01*
X163765677Y-91269685D01*
G37*
%TD.AperFunction*%
%TD*%
%TA.AperFunction,Conductor*%
%TO.N,GND*%
G36*
X168942539Y-86520185D02*
G01*
X168988294Y-86572989D01*
X168999500Y-86624500D01*
X168999500Y-120562094D01*
X168979815Y-120629133D01*
X168937501Y-120669481D01*
X168923945Y-120677307D01*
X168923944Y-120677308D01*
X168789836Y-120789836D01*
X168677309Y-120923942D01*
X168589775Y-121075553D01*
X168529898Y-121240062D01*
X168499500Y-121412465D01*
X168499500Y-122676000D01*
X168479815Y-122743039D01*
X168427011Y-122788794D01*
X168375500Y-122800000D01*
X167374499Y-122800000D01*
X167307460Y-122780315D01*
X167261705Y-122727511D01*
X167250499Y-122676000D01*
X167250499Y-122452129D01*
X167250498Y-122452123D01*
X167244091Y-122392516D01*
X167193797Y-122257671D01*
X167193793Y-122257664D01*
X167107547Y-122142455D01*
X167107544Y-122142452D01*
X166992335Y-122056206D01*
X166992328Y-122056202D01*
X166857482Y-122005908D01*
X166857483Y-122005908D01*
X166797883Y-121999501D01*
X166797881Y-121999500D01*
X166797873Y-121999500D01*
X166797864Y-121999500D01*
X165702129Y-121999500D01*
X165702123Y-121999501D01*
X165642515Y-122005909D01*
X165543332Y-122042901D01*
X165473640Y-122047885D01*
X165456668Y-122042901D01*
X165357485Y-122005909D01*
X165357483Y-122005908D01*
X165297883Y-121999501D01*
X165297881Y-121999500D01*
X165297873Y-121999500D01*
X165297864Y-121999500D01*
X164202129Y-121999500D01*
X164202123Y-121999501D01*
X164142514Y-122005909D01*
X164043331Y-122042901D01*
X164016987Y-122044784D01*
X163991178Y-122050405D01*
X163978110Y-122047565D01*
X163973639Y-122047885D01*
X163956689Y-122042910D01*
X163956190Y-122042724D01*
X163900248Y-122000864D01*
X163875818Y-121935405D01*
X163875500Y-121926533D01*
X163875500Y-120277463D01*
X163895185Y-120210424D01*
X163947989Y-120164669D01*
X164017147Y-120154725D01*
X164068392Y-120174362D01*
X164120812Y-120209389D01*
X164120827Y-120209397D01*
X164266498Y-120269735D01*
X164266503Y-120269737D01*
X164399973Y-120296286D01*
X164421153Y-120300499D01*
X164421156Y-120300500D01*
X164421158Y-120300500D01*
X164578844Y-120300500D01*
X164578845Y-120300499D01*
X164733497Y-120269737D01*
X164875502Y-120210917D01*
X164879172Y-120209397D01*
X164879172Y-120209396D01*
X164879179Y-120209394D01*
X165010289Y-120121789D01*
X165121789Y-120010289D01*
X165209394Y-119879179D01*
X165216677Y-119861593D01*
X165260514Y-119807190D01*
X165326807Y-119785122D01*
X165355431Y-119787426D01*
X165421155Y-119800500D01*
X165421158Y-119800500D01*
X165578844Y-119800500D01*
X165578845Y-119800499D01*
X165733497Y-119769737D01*
X165879179Y-119709394D01*
X166010289Y-119621789D01*
X166121789Y-119510289D01*
X166209394Y-119379179D01*
X166269737Y-119233497D01*
X166300500Y-119078842D01*
X166300500Y-118921158D01*
X166300500Y-118921155D01*
X166300499Y-118921153D01*
X166274531Y-118790606D01*
X166269737Y-118766503D01*
X166269735Y-118766498D01*
X166209397Y-118620828D01*
X166209396Y-118620827D01*
X166209394Y-118620821D01*
X166146397Y-118526539D01*
X166125520Y-118459863D01*
X166125500Y-118457650D01*
X166125500Y-109567741D01*
X166125501Y-109567720D01*
X166125501Y-109438391D01*
X166101464Y-109317555D01*
X166101463Y-109317549D01*
X166054312Y-109203715D01*
X165985858Y-109101267D01*
X165985855Y-109101263D01*
X162032928Y-105148338D01*
X162032927Y-105148337D01*
X162025858Y-105141268D01*
X162025858Y-105141267D01*
X161994271Y-105109680D01*
X161960786Y-105048357D01*
X161963457Y-105011019D01*
X161965771Y-104978666D01*
X162007643Y-104922733D01*
X162007643Y-104922732D01*
X162007644Y-104922732D01*
X162037540Y-104911581D01*
X162073107Y-104898316D01*
X162081953Y-104898000D01*
X162557809Y-104898000D01*
X162624848Y-104917685D01*
X162663348Y-104956904D01*
X162679660Y-104983350D01*
X162801650Y-105105340D01*
X162948484Y-105195908D01*
X163112247Y-105250174D01*
X163213323Y-105260500D01*
X163786676Y-105260499D01*
X163786684Y-105260498D01*
X163786687Y-105260498D01*
X163842030Y-105254844D01*
X163887753Y-105250174D01*
X164051516Y-105195908D01*
X164198350Y-105105340D01*
X164320340Y-104983350D01*
X164410908Y-104836516D01*
X164465174Y-104672753D01*
X164475500Y-104571677D01*
X164475499Y-103973324D01*
X164465174Y-103872247D01*
X164410908Y-103708484D01*
X164320340Y-103561650D01*
X164315407Y-103556717D01*
X164281922Y-103495394D01*
X164286906Y-103425702D01*
X164328778Y-103369769D01*
X164393753Y-103321129D01*
X164393753Y-103321128D01*
X164393761Y-103321123D01*
X164571123Y-103143761D01*
X164607288Y-103103500D01*
X164623922Y-103082858D01*
X164655567Y-103038974D01*
X164715338Y-102908097D01*
X164735023Y-102841058D01*
X164735024Y-102841054D01*
X164755500Y-102698638D01*
X164755500Y-95566721D01*
X164755500Y-95566711D01*
X164749045Y-95486207D01*
X164749044Y-95486191D01*
X164742750Y-95447187D01*
X164723546Y-95368710D01*
X164698851Y-95294191D01*
X164693184Y-95267623D01*
X164693123Y-95267029D01*
X164692500Y-95254608D01*
X164692500Y-94745386D01*
X164693120Y-94733005D01*
X164693137Y-94732828D01*
X164693179Y-94732420D01*
X164698849Y-94705818D01*
X164723547Y-94631288D01*
X164723547Y-94631284D01*
X164723550Y-94631278D01*
X164742747Y-94552824D01*
X164742750Y-94552812D01*
X164749044Y-94513808D01*
X164751205Y-94486851D01*
X164755500Y-94433287D01*
X164755500Y-91801359D01*
X164752602Y-91747311D01*
X164752602Y-91747310D01*
X164749770Y-91720977D01*
X164749767Y-91720950D01*
X164741114Y-91667554D01*
X164741114Y-91667552D01*
X164690833Y-91532747D01*
X164690832Y-91532743D01*
X164657347Y-91471420D01*
X164571123Y-91356239D01*
X164571118Y-91356234D01*
X164571113Y-91356228D01*
X164143776Y-90928892D01*
X164143770Y-90928886D01*
X164143761Y-90928877D01*
X164143737Y-90928855D01*
X164103519Y-90892728D01*
X164103507Y-90892718D01*
X164082856Y-90876076D01*
X164038974Y-90844433D01*
X163908100Y-90784663D01*
X163841055Y-90764976D01*
X163793582Y-90758150D01*
X163698638Y-90744500D01*
X129801362Y-90744500D01*
X129801360Y-90744500D01*
X129747311Y-90747397D01*
X129747310Y-90747397D01*
X129720977Y-90750229D01*
X129720950Y-90750232D01*
X129667554Y-90758885D01*
X129667552Y-90758885D01*
X129532747Y-90809166D01*
X129471422Y-90842651D01*
X129356240Y-90928876D01*
X129356228Y-90928886D01*
X120428892Y-99856223D01*
X120428855Y-99856262D01*
X120392728Y-99896480D01*
X120392718Y-99896492D01*
X120376076Y-99917143D01*
X120344433Y-99961025D01*
X120284663Y-100091899D01*
X120264976Y-100158944D01*
X120247238Y-100282320D01*
X120218213Y-100345875D01*
X120159435Y-100383650D01*
X120089566Y-100383650D01*
X120030787Y-100345876D01*
X120001762Y-100282320D01*
X120000500Y-100264673D01*
X120000500Y-88381902D01*
X142999500Y-88381902D01*
X142999500Y-88618097D01*
X143036446Y-88851368D01*
X143109433Y-89075996D01*
X143216657Y-89286433D01*
X143355483Y-89477510D01*
X143522490Y-89644517D01*
X143713567Y-89783343D01*
X143812991Y-89834002D01*
X143924003Y-89890566D01*
X143924005Y-89890566D01*
X143924008Y-89890568D01*
X144044412Y-89929689D01*
X144148631Y-89963553D01*
X144381903Y-90000500D01*
X144381908Y-90000500D01*
X144618097Y-90000500D01*
X144851368Y-89963553D01*
X145075992Y-89890568D01*
X145286433Y-89783343D01*
X145477510Y-89644517D01*
X145644517Y-89477510D01*
X145783343Y-89286433D01*
X145890568Y-89075992D01*
X145963553Y-88851368D01*
X145988929Y-88691150D01*
X146000500Y-88618097D01*
X146000500Y-88381902D01*
X145963553Y-88148631D01*
X145890566Y-87924003D01*
X145783342Y-87713566D01*
X145644517Y-87522490D01*
X145477510Y-87355483D01*
X145286433Y-87216657D01*
X145075996Y-87109433D01*
X144851368Y-87036446D01*
X144618097Y-86999500D01*
X144618092Y-86999500D01*
X144381908Y-86999500D01*
X144381903Y-86999500D01*
X144148631Y-87036446D01*
X143924003Y-87109433D01*
X143713566Y-87216657D01*
X143604550Y-87295862D01*
X143522490Y-87355483D01*
X143522488Y-87355485D01*
X143522487Y-87355485D01*
X143355485Y-87522487D01*
X143355485Y-87522488D01*
X143355483Y-87522490D01*
X143295862Y-87604550D01*
X143216657Y-87713566D01*
X143109433Y-87924003D01*
X143036446Y-88148631D01*
X142999500Y-88381902D01*
X120000500Y-88381902D01*
X120000500Y-86624500D01*
X120020185Y-86557461D01*
X120072989Y-86511706D01*
X120124500Y-86500500D01*
X168875500Y-86500500D01*
X168942539Y-86520185D01*
G37*
%TD.AperFunction*%
%TA.AperFunction,Conductor*%
G36*
X154391350Y-93108837D02*
G01*
X154437702Y-93161118D01*
X154449500Y-93213908D01*
X154449500Y-94054543D01*
X154449500Y-94054545D01*
X154449499Y-94054545D01*
X154478340Y-94199532D01*
X154478343Y-94199542D01*
X154534914Y-94336117D01*
X154534915Y-94336119D01*
X154534916Y-94336120D01*
X154557377Y-94369736D01*
X154567812Y-94385352D01*
X154567813Y-94385355D01*
X154617046Y-94459039D01*
X154617052Y-94459046D01*
X155253181Y-95095173D01*
X155267884Y-95122100D01*
X155284477Y-95147919D01*
X155285368Y-95154119D01*
X155286666Y-95156496D01*
X155289500Y-95182854D01*
X155289500Y-95292670D01*
X155284576Y-95327265D01*
X155242402Y-95472426D01*
X155242401Y-95472432D01*
X155239500Y-95509298D01*
X155239500Y-96815701D01*
X155242401Y-96852567D01*
X155242402Y-96852573D01*
X155288254Y-97010393D01*
X155288255Y-97010396D01*
X155288256Y-97010398D01*
X155371918Y-97151864D01*
X155371923Y-97151870D01*
X155488129Y-97268076D01*
X155488133Y-97268079D01*
X155488135Y-97268081D01*
X155629602Y-97351744D01*
X155671224Y-97363836D01*
X155787426Y-97397597D01*
X155787429Y-97397597D01*
X155787431Y-97397598D01*
X155824306Y-97400500D01*
X155824314Y-97400500D01*
X156171731Y-97400500D01*
X156238770Y-97420185D01*
X156284525Y-97472989D01*
X156294469Y-97542147D01*
X156265444Y-97605703D01*
X156244373Y-97624292D01*
X156244419Y-97624347D01*
X156242880Y-97625609D01*
X156240621Y-97627603D01*
X156239708Y-97628212D01*
X156128213Y-97739707D01*
X156128210Y-97739711D01*
X156040609Y-97870814D01*
X156040602Y-97870827D01*
X155980264Y-98016498D01*
X155980261Y-98016510D01*
X155949500Y-98171153D01*
X155949500Y-98328846D01*
X155972260Y-98443268D01*
X155966033Y-98512859D01*
X155923170Y-98568037D01*
X155883000Y-98585525D01*
X155883378Y-98586769D01*
X155877545Y-98588538D01*
X155763713Y-98635689D01*
X155687471Y-98686631D01*
X155642774Y-98705145D01*
X155516508Y-98730261D01*
X155516498Y-98730264D01*
X155370827Y-98790602D01*
X155370814Y-98790609D01*
X155239711Y-98878210D01*
X155239707Y-98878213D01*
X155128213Y-98989707D01*
X155128210Y-98989711D01*
X155040609Y-99120814D01*
X155040602Y-99120827D01*
X154980264Y-99266498D01*
X154980261Y-99266510D01*
X154949500Y-99421153D01*
X154949500Y-99578846D01*
X154970876Y-99686309D01*
X154964649Y-99755900D01*
X154921786Y-99811078D01*
X154855896Y-99834322D01*
X154849259Y-99834500D01*
X154582350Y-99834500D01*
X154515311Y-99814815D01*
X154513459Y-99813602D01*
X154419184Y-99750609D01*
X154419172Y-99750602D01*
X154273501Y-99690264D01*
X154273489Y-99690261D01*
X154118845Y-99659500D01*
X154118842Y-99659500D01*
X153961158Y-99659500D01*
X153961155Y-99659500D01*
X153806510Y-99690261D01*
X153806498Y-99690264D01*
X153660827Y-99750602D01*
X153660814Y-99750609D01*
X153529711Y-99838210D01*
X153529707Y-99838213D01*
X153418213Y-99949707D01*
X153418210Y-99949711D01*
X153330609Y-100080814D01*
X153330606Y-100080820D01*
X153294660Y-100167601D01*
X153250818Y-100222004D01*
X153184524Y-100244068D01*
X153116825Y-100226788D01*
X153092418Y-100207828D01*
X152891819Y-100007229D01*
X152858334Y-99945906D01*
X152855500Y-99919548D01*
X152855500Y-97245808D01*
X152875185Y-97178769D01*
X152891817Y-97158128D01*
X152898081Y-97151865D01*
X152981744Y-97010398D01*
X153027598Y-96852569D01*
X153030500Y-96815694D01*
X153030500Y-95509306D01*
X153027598Y-95472431D01*
X153020264Y-95447188D01*
X152981745Y-95314606D01*
X152981744Y-95314603D01*
X152981744Y-95314602D01*
X152898081Y-95173135D01*
X152898079Y-95173133D01*
X152898076Y-95173129D01*
X152781870Y-95056923D01*
X152781862Y-95056917D01*
X152640396Y-94973255D01*
X152640393Y-94973254D01*
X152482573Y-94927402D01*
X152482567Y-94927401D01*
X152445701Y-94924500D01*
X152445694Y-94924500D01*
X152014306Y-94924500D01*
X152014298Y-94924500D01*
X151977432Y-94927401D01*
X151977426Y-94927402D01*
X151819606Y-94973254D01*
X151819603Y-94973255D01*
X151678137Y-95056917D01*
X151671969Y-95061702D01*
X151670072Y-95059256D01*
X151621358Y-95085857D01*
X151551666Y-95080873D01*
X151519296Y-95060069D01*
X151518031Y-95061702D01*
X151511862Y-95056917D01*
X151370396Y-94973255D01*
X151370393Y-94973254D01*
X151212573Y-94927402D01*
X151212567Y-94927401D01*
X151175701Y-94924500D01*
X151175694Y-94924500D01*
X150744306Y-94924500D01*
X150744298Y-94924500D01*
X150707432Y-94927401D01*
X150707426Y-94927402D01*
X150549606Y-94973254D01*
X150549603Y-94973255D01*
X150408137Y-95056917D01*
X150408129Y-95056923D01*
X150291923Y-95173129D01*
X150291917Y-95173137D01*
X150208255Y-95314603D01*
X150208254Y-95314606D01*
X150162402Y-95472426D01*
X150162401Y-95472432D01*
X150159500Y-95509298D01*
X150159500Y-96815701D01*
X150162401Y-96852565D01*
X150209509Y-97014712D01*
X150209309Y-97084582D01*
X150171367Y-97143252D01*
X150107728Y-97172095D01*
X150055837Y-97168383D01*
X149897573Y-97122402D01*
X149897567Y-97122401D01*
X149860701Y-97119500D01*
X149860694Y-97119500D01*
X148554306Y-97119500D01*
X148554298Y-97119500D01*
X148517432Y-97122401D01*
X148517426Y-97122402D01*
X148359606Y-97168254D01*
X148359603Y-97168255D01*
X148218137Y-97251917D01*
X148218129Y-97251923D01*
X148211872Y-97258181D01*
X148184944Y-97272884D01*
X148159126Y-97289477D01*
X148152925Y-97290368D01*
X148150549Y-97291666D01*
X148124191Y-97294500D01*
X147913245Y-97294500D01*
X147865793Y-97285061D01*
X147733501Y-97230264D01*
X147733489Y-97230261D01*
X147578845Y-97199500D01*
X147578842Y-97199500D01*
X147421158Y-97199500D01*
X147421155Y-97199500D01*
X147266510Y-97230261D01*
X147266498Y-97230264D01*
X147120827Y-97290602D01*
X147120814Y-97290609D01*
X146989711Y-97378210D01*
X146989707Y-97378213D01*
X146878213Y-97489707D01*
X146878210Y-97489711D01*
X146790609Y-97620814D01*
X146790602Y-97620827D01*
X146730264Y-97766498D01*
X146730261Y-97766510D01*
X146699500Y-97921153D01*
X146699500Y-98078846D01*
X146730261Y-98233489D01*
X146730264Y-98233501D01*
X146790606Y-98379182D01*
X146792140Y-98382051D01*
X146792488Y-98383725D01*
X146792937Y-98384808D01*
X146792731Y-98384893D01*
X146806380Y-98450454D01*
X146781377Y-98515697D01*
X146725071Y-98557065D01*
X146682780Y-98564500D01*
X146371607Y-98564500D01*
X146248393Y-98564500D01*
X146188240Y-98576465D01*
X146188239Y-98576464D01*
X146127555Y-98588535D01*
X146127545Y-98588538D01*
X146013713Y-98635689D01*
X145937471Y-98686631D01*
X145892774Y-98705145D01*
X145766508Y-98730261D01*
X145766498Y-98730264D01*
X145620827Y-98790602D01*
X145620814Y-98790609D01*
X145489711Y-98878210D01*
X145489707Y-98878213D01*
X145378213Y-98989707D01*
X145378210Y-98989711D01*
X145290609Y-99120814D01*
X145290602Y-99120827D01*
X145230264Y-99266498D01*
X145230261Y-99266510D01*
X145199500Y-99421153D01*
X145199500Y-99575500D01*
X145179815Y-99642539D01*
X145127011Y-99688294D01*
X145075500Y-99699500D01*
X144921155Y-99699500D01*
X144766510Y-99730261D01*
X144766498Y-99730264D01*
X144620827Y-99790602D01*
X144620814Y-99790609D01*
X144489711Y-99878210D01*
X144489707Y-99878213D01*
X144378213Y-99989707D01*
X144378210Y-99989711D01*
X144290609Y-100120814D01*
X144290602Y-100120827D01*
X144230264Y-100266498D01*
X144230261Y-100266510D01*
X144199500Y-100421153D01*
X144199500Y-100578846D01*
X144230261Y-100733489D01*
X144230264Y-100733501D01*
X144290602Y-100879172D01*
X144290608Y-100879183D01*
X144312275Y-100911610D01*
X144333152Y-100978288D01*
X144314667Y-101045668D01*
X144262688Y-101092357D01*
X144209172Y-101104500D01*
X143337741Y-101104500D01*
X143337721Y-101104499D01*
X143331607Y-101104499D01*
X143208394Y-101104499D01*
X143107597Y-101124548D01*
X143107592Y-101124548D01*
X143087549Y-101128536D01*
X143087547Y-101128536D01*
X143040397Y-101148067D01*
X142973719Y-101175685D01*
X142973711Y-101175689D01*
X142965751Y-101181008D01*
X142921060Y-101199518D01*
X142766508Y-101230261D01*
X142766498Y-101230264D01*
X142620827Y-101290602D01*
X142620814Y-101290609D01*
X142489711Y-101378210D01*
X142489707Y-101378213D01*
X142378213Y-101489707D01*
X142378210Y-101489711D01*
X142290609Y-101620814D01*
X142290602Y-101620827D01*
X142230264Y-101766498D01*
X142230261Y-101766510D01*
X142199500Y-101921153D01*
X142199500Y-101921158D01*
X142199500Y-102078842D01*
X142199500Y-102078844D01*
X142199499Y-102078844D01*
X142228833Y-102226308D01*
X142222606Y-102295900D01*
X142179743Y-102351077D01*
X142113854Y-102374322D01*
X142107216Y-102374500D01*
X141938393Y-102374500D01*
X141914868Y-102379179D01*
X141914867Y-102379178D01*
X141817555Y-102398535D01*
X141817541Y-102398539D01*
X141778601Y-102414668D01*
X141778602Y-102414669D01*
X141703718Y-102445686D01*
X141703711Y-102445690D01*
X141686620Y-102457110D01*
X141678190Y-102462743D01*
X141678189Y-102462744D01*
X141678188Y-102462743D01*
X141601266Y-102514142D01*
X141567018Y-102548391D01*
X141514142Y-102601267D01*
X141514139Y-102601270D01*
X141471258Y-102644151D01*
X141441203Y-102674206D01*
X141379879Y-102707690D01*
X141377714Y-102708141D01*
X141266508Y-102730261D01*
X141266498Y-102730264D01*
X141120827Y-102790602D01*
X141120814Y-102790609D01*
X140989711Y-102878210D01*
X140989707Y-102878213D01*
X140878213Y-102989707D01*
X140878210Y-102989711D01*
X140790609Y-103120814D01*
X140790602Y-103120827D01*
X140730264Y-103266498D01*
X140730261Y-103266510D01*
X140699500Y-103421153D01*
X140699500Y-103578846D01*
X140730261Y-103733489D01*
X140730264Y-103733501D01*
X140790602Y-103879172D01*
X140790609Y-103879185D01*
X140878210Y-104010288D01*
X140878213Y-104010292D01*
X140903984Y-104036063D01*
X140937469Y-104097386D01*
X140932485Y-104167078D01*
X140903984Y-104211425D01*
X139211181Y-105904228D01*
X139149858Y-105937713D01*
X139080166Y-105932729D01*
X139024233Y-105890857D01*
X138999816Y-105825393D01*
X138999500Y-105816547D01*
X138999500Y-105436452D01*
X139019185Y-105369413D01*
X139035819Y-105348771D01*
X139505412Y-104879179D01*
X139985857Y-104398734D01*
X140028152Y-104335434D01*
X140044979Y-104310254D01*
X140054306Y-104296294D01*
X140054307Y-104296291D01*
X140054311Y-104296286D01*
X140101463Y-104182452D01*
X140113218Y-104123355D01*
X140120781Y-104085335D01*
X140120781Y-104085331D01*
X140125500Y-104061607D01*
X140125500Y-103938394D01*
X140125500Y-100042350D01*
X140145185Y-99975311D01*
X140146398Y-99973459D01*
X140162266Y-99949711D01*
X140209394Y-99879179D01*
X140269737Y-99733497D01*
X140300500Y-99578842D01*
X140300500Y-99421158D01*
X140300500Y-99421155D01*
X140300499Y-99421153D01*
X140269738Y-99266510D01*
X140269737Y-99266503D01*
X140269735Y-99266498D01*
X140209397Y-99120827D01*
X140209390Y-99120814D01*
X140121789Y-98989711D01*
X140121786Y-98989707D01*
X140010292Y-98878213D01*
X140010288Y-98878210D01*
X139879185Y-98790609D01*
X139879172Y-98790602D01*
X139733501Y-98730264D01*
X139733489Y-98730261D01*
X139578845Y-98699500D01*
X139578842Y-98699500D01*
X139421158Y-98699500D01*
X139421155Y-98699500D01*
X139266510Y-98730261D01*
X139266498Y-98730264D01*
X139120827Y-98790602D01*
X139120814Y-98790609D01*
X138989711Y-98878210D01*
X138989707Y-98878213D01*
X138878213Y-98989707D01*
X138878210Y-98989711D01*
X138790609Y-99120814D01*
X138790602Y-99120827D01*
X138730264Y-99266498D01*
X138730261Y-99266510D01*
X138699500Y-99421153D01*
X138699500Y-99578846D01*
X138730261Y-99733489D01*
X138730264Y-99733501D01*
X138790602Y-99879172D01*
X138790609Y-99879184D01*
X138853602Y-99973459D01*
X138874480Y-100040136D01*
X138874500Y-100042350D01*
X138874500Y-101959145D01*
X138854815Y-102026184D01*
X138802011Y-102071939D01*
X138732853Y-102081883D01*
X138669297Y-102052858D01*
X138647399Y-102028037D01*
X138621791Y-101989713D01*
X138621786Y-101989707D01*
X138510292Y-101878213D01*
X138510288Y-101878210D01*
X138379185Y-101790609D01*
X138379172Y-101790602D01*
X138233501Y-101730264D01*
X138233489Y-101730261D01*
X138078845Y-101699500D01*
X138078842Y-101699500D01*
X137921158Y-101699500D01*
X137921155Y-101699500D01*
X137766510Y-101730261D01*
X137766498Y-101730264D01*
X137620827Y-101790602D01*
X137620814Y-101790609D01*
X137489711Y-101878210D01*
X137489707Y-101878213D01*
X137378213Y-101989707D01*
X137378210Y-101989711D01*
X137290609Y-102120814D01*
X137290602Y-102120827D01*
X137230264Y-102266498D01*
X137230261Y-102266508D01*
X137208141Y-102377714D01*
X137199376Y-102394469D01*
X137195357Y-102412948D01*
X137176611Y-102437989D01*
X137175756Y-102439625D01*
X137174206Y-102441203D01*
X137101270Y-102514139D01*
X137101269Y-102514139D01*
X137101268Y-102514140D01*
X137101267Y-102514142D01*
X137067018Y-102548391D01*
X137014142Y-102601266D01*
X136985487Y-102644151D01*
X136985483Y-102644158D01*
X136981246Y-102650500D01*
X136945688Y-102703714D01*
X136918341Y-102769737D01*
X136901558Y-102810256D01*
X136899819Y-102814453D01*
X136899816Y-102814460D01*
X136898538Y-102817544D01*
X136898537Y-102817547D01*
X136877457Y-102923531D01*
X136877455Y-102923537D01*
X136874500Y-102938389D01*
X136874500Y-104607215D01*
X136854815Y-104674254D01*
X136802011Y-104720009D01*
X136732853Y-104729953D01*
X136726309Y-104728832D01*
X136578846Y-104699500D01*
X136578842Y-104699500D01*
X136421158Y-104699500D01*
X136421155Y-104699500D01*
X136266510Y-104730261D01*
X136266498Y-104730264D01*
X136120827Y-104790602D01*
X136120814Y-104790609D01*
X135989711Y-104878210D01*
X135989707Y-104878213D01*
X135878213Y-104989707D01*
X135878210Y-104989711D01*
X135790609Y-105120814D01*
X135790602Y-105120827D01*
X135730264Y-105266498D01*
X135730261Y-105266510D01*
X135699500Y-105421153D01*
X135698903Y-105427218D01*
X135698050Y-105427134D01*
X135697873Y-105428021D01*
X135698790Y-105433100D01*
X135690061Y-105467298D01*
X135666272Y-105524731D01*
X135648539Y-105567541D01*
X135648535Y-105567555D01*
X135639723Y-105611856D01*
X135639724Y-105611857D01*
X135626108Y-105680312D01*
X135626107Y-105680314D01*
X135624500Y-105688392D01*
X135624500Y-107722536D01*
X135604815Y-107789575D01*
X135552011Y-107835330D01*
X135482853Y-107845274D01*
X135431609Y-107825638D01*
X135379185Y-107790609D01*
X135379172Y-107790602D01*
X135233501Y-107730264D01*
X135233489Y-107730261D01*
X135078845Y-107699500D01*
X135078842Y-107699500D01*
X134921158Y-107699500D01*
X134921155Y-107699500D01*
X134766510Y-107730261D01*
X134766498Y-107730264D01*
X134620827Y-107790602D01*
X134620814Y-107790609D01*
X134489711Y-107878210D01*
X134489707Y-107878213D01*
X134378213Y-107989707D01*
X134378210Y-107989711D01*
X134290609Y-108120814D01*
X134290602Y-108120827D01*
X134230264Y-108266498D01*
X134230261Y-108266510D01*
X134199500Y-108421153D01*
X134198903Y-108427218D01*
X134198050Y-108427134D01*
X134197873Y-108428020D01*
X134198790Y-108433098D01*
X134190062Y-108467296D01*
X134162347Y-108534207D01*
X134157213Y-108546603D01*
X134148537Y-108567545D01*
X134148535Y-108567553D01*
X134124500Y-108688389D01*
X134124500Y-110075500D01*
X134104815Y-110142539D01*
X134052011Y-110188294D01*
X134000500Y-110199500D01*
X133921155Y-110199500D01*
X133766510Y-110230261D01*
X133766498Y-110230264D01*
X133620827Y-110290602D01*
X133620815Y-110290609D01*
X133526541Y-110353602D01*
X133459864Y-110374480D01*
X133457650Y-110374500D01*
X133438393Y-110374500D01*
X133330117Y-110396037D01*
X133330116Y-110396036D01*
X133317551Y-110398536D01*
X133317545Y-110398538D01*
X133203716Y-110445687D01*
X133150310Y-110481373D01*
X133136360Y-110490694D01*
X133105618Y-110511235D01*
X133101266Y-110514143D01*
X133101262Y-110514145D01*
X132851269Y-110764140D01*
X132764144Y-110851264D01*
X132764138Y-110851272D01*
X132695690Y-110953708D01*
X132695689Y-110953710D01*
X132676427Y-111000211D01*
X132676428Y-111000212D01*
X132648537Y-111067549D01*
X132648535Y-111067556D01*
X132624500Y-111188389D01*
X132624500Y-112722536D01*
X132604815Y-112789575D01*
X132552011Y-112835330D01*
X132482853Y-112845274D01*
X132431609Y-112825638D01*
X132379185Y-112790609D01*
X132379172Y-112790602D01*
X132233501Y-112730264D01*
X132233489Y-112730261D01*
X132078845Y-112699500D01*
X132078842Y-112699500D01*
X131921158Y-112699500D01*
X131921155Y-112699500D01*
X131766510Y-112730261D01*
X131766498Y-112730264D01*
X131620827Y-112790602D01*
X131620814Y-112790609D01*
X131489711Y-112878210D01*
X131489707Y-112878213D01*
X131378213Y-112989707D01*
X131378210Y-112989711D01*
X131290609Y-113120814D01*
X131290602Y-113120827D01*
X131230264Y-113266498D01*
X131230261Y-113266510D01*
X131199500Y-113421153D01*
X131199500Y-113578846D01*
X131230261Y-113733489D01*
X131230263Y-113733497D01*
X131249575Y-113780120D01*
X131257043Y-113849590D01*
X131225767Y-113912069D01*
X131165678Y-113947721D01*
X131095853Y-113945226D01*
X131047332Y-113915253D01*
X131010292Y-113878213D01*
X131010288Y-113878210D01*
X130879185Y-113790609D01*
X130879172Y-113790602D01*
X130733501Y-113730264D01*
X130733489Y-113730261D01*
X130578845Y-113699500D01*
X130578842Y-113699500D01*
X130421158Y-113699500D01*
X130421155Y-113699500D01*
X130266510Y-113730261D01*
X130266498Y-113730264D01*
X130120827Y-113790602D01*
X130120814Y-113790609D01*
X129989711Y-113878210D01*
X129989707Y-113878213D01*
X129878213Y-113989707D01*
X129878210Y-113989711D01*
X129790609Y-114120814D01*
X129790602Y-114120827D01*
X129730264Y-114266498D01*
X129730261Y-114266510D01*
X129699500Y-114421153D01*
X129698903Y-114427218D01*
X129698050Y-114427134D01*
X129690061Y-114467298D01*
X129670658Y-114514141D01*
X129670658Y-114514143D01*
X129648537Y-114567548D01*
X129648536Y-114567552D01*
X129648536Y-114567553D01*
X129648535Y-114567556D01*
X129624500Y-114688389D01*
X129624500Y-114722536D01*
X129604815Y-114789575D01*
X129552011Y-114835330D01*
X129482853Y-114845274D01*
X129431609Y-114825638D01*
X129379185Y-114790609D01*
X129379172Y-114790602D01*
X129233501Y-114730264D01*
X129233489Y-114730261D01*
X129078845Y-114699500D01*
X129078842Y-114699500D01*
X128921158Y-114699500D01*
X128921155Y-114699500D01*
X128766510Y-114730261D01*
X128766498Y-114730264D01*
X128620827Y-114790602D01*
X128620814Y-114790609D01*
X128489711Y-114878210D01*
X128489707Y-114878213D01*
X128378213Y-114989707D01*
X128378210Y-114989711D01*
X128290609Y-115120814D01*
X128290602Y-115120827D01*
X128230264Y-115266498D01*
X128230261Y-115266510D01*
X128199500Y-115421153D01*
X128198903Y-115427218D01*
X128198050Y-115427134D01*
X128197873Y-115428020D01*
X128198790Y-115433098D01*
X128190062Y-115467296D01*
X128162347Y-115534207D01*
X128159121Y-115541996D01*
X128148537Y-115567545D01*
X128148535Y-115567553D01*
X128124500Y-115688389D01*
X128124500Y-121926533D01*
X128118246Y-121947829D01*
X128116644Y-121969967D01*
X128108594Y-121980700D01*
X128104815Y-121993572D01*
X128088043Y-122008104D01*
X128074725Y-122025864D01*
X128055387Y-122036401D01*
X128052011Y-122039327D01*
X128043733Y-122042752D01*
X128043233Y-122042938D01*
X127973538Y-122047862D01*
X127956668Y-122042901D01*
X127857485Y-122005909D01*
X127857483Y-122005908D01*
X127797883Y-121999501D01*
X127797881Y-121999500D01*
X127797873Y-121999500D01*
X127797864Y-121999500D01*
X126702129Y-121999500D01*
X126702123Y-121999501D01*
X126642514Y-122005909D01*
X126543331Y-122042901D01*
X126516987Y-122044784D01*
X126491178Y-122050405D01*
X126478110Y-122047565D01*
X126473639Y-122047885D01*
X126456689Y-122042910D01*
X126456190Y-122042724D01*
X126400248Y-122000864D01*
X126375818Y-121935405D01*
X126375500Y-121926533D01*
X126375500Y-120278131D01*
X126395185Y-120211092D01*
X126430607Y-120175030D01*
X126510289Y-120121789D01*
X126621789Y-120010289D01*
X126709394Y-119879179D01*
X126709395Y-119879175D01*
X126709397Y-119879172D01*
X126738276Y-119809452D01*
X126769737Y-119733497D01*
X126800500Y-119578842D01*
X126800500Y-119421158D01*
X126800500Y-119421155D01*
X126800499Y-119421153D01*
X126792148Y-119379172D01*
X126769737Y-119266503D01*
X126743729Y-119203714D01*
X126709397Y-119120827D01*
X126709390Y-119120814D01*
X126621789Y-118989711D01*
X126621786Y-118989707D01*
X126510292Y-118878213D01*
X126510288Y-118878210D01*
X126379185Y-118790609D01*
X126379172Y-118790602D01*
X126233501Y-118730264D01*
X126233489Y-118730261D01*
X126078845Y-118699500D01*
X126078842Y-118699500D01*
X125921158Y-118699500D01*
X125921155Y-118699500D01*
X125766510Y-118730261D01*
X125766498Y-118730264D01*
X125620827Y-118790602D01*
X125620814Y-118790609D01*
X125489711Y-118878210D01*
X125489707Y-118878213D01*
X125378213Y-118989707D01*
X125378210Y-118989711D01*
X125290609Y-119120814D01*
X125290602Y-119120827D01*
X125230264Y-119266498D01*
X125230261Y-119266510D01*
X125199500Y-119421153D01*
X125198903Y-119427218D01*
X125198050Y-119427134D01*
X125197873Y-119428021D01*
X125198790Y-119433100D01*
X125190061Y-119467298D01*
X125170658Y-119514142D01*
X125170658Y-119514143D01*
X125148538Y-119567544D01*
X125148535Y-119567552D01*
X125146291Y-119578840D01*
X125146291Y-119578842D01*
X125127294Y-119674352D01*
X125125059Y-119685587D01*
X125125055Y-119685603D01*
X125124500Y-119688388D01*
X125124500Y-121926533D01*
X125118276Y-121947727D01*
X125116720Y-121969763D01*
X125108624Y-121980597D01*
X125104815Y-121993572D01*
X125088122Y-122008035D01*
X125074899Y-122025734D01*
X125055358Y-122036426D01*
X125052011Y-122039327D01*
X125043937Y-122042676D01*
X125043437Y-122042863D01*
X124973750Y-122047910D01*
X124956563Y-122042863D01*
X124956063Y-122042676D01*
X124934592Y-122026574D01*
X124912397Y-122014480D01*
X124908172Y-122006759D01*
X124900166Y-122000755D01*
X124890146Y-121973817D01*
X124878857Y-121953186D01*
X124879434Y-121945016D01*
X124875808Y-121935268D01*
X124875500Y-121926533D01*
X124875500Y-111310452D01*
X124895185Y-111243413D01*
X124911819Y-111222771D01*
X141560271Y-94574319D01*
X141621594Y-94540834D01*
X141647952Y-94538000D01*
X152749108Y-94538000D01*
X152749108Y-94537999D01*
X152840923Y-94519737D01*
X152869952Y-94513963D01*
X152903292Y-94500152D01*
X152983786Y-94466812D01*
X153035009Y-94432584D01*
X153064297Y-94413014D01*
X153064308Y-94413010D01*
X153108988Y-94394502D01*
X153233497Y-94369737D01*
X153371070Y-94312753D01*
X153379172Y-94309397D01*
X153379172Y-94309396D01*
X153379179Y-94309394D01*
X153510289Y-94221789D01*
X153621789Y-94110289D01*
X153709394Y-93979179D01*
X153769737Y-93833497D01*
X153800500Y-93678842D01*
X153800500Y-93521158D01*
X153800500Y-93521155D01*
X153800499Y-93521153D01*
X153780988Y-93423065D01*
X153769737Y-93366503D01*
X153746779Y-93311076D01*
X153728457Y-93266843D01*
X153720988Y-93197374D01*
X153752263Y-93134895D01*
X153812352Y-93099243D01*
X153841604Y-93095399D01*
X154324091Y-93089916D01*
X154391350Y-93108837D01*
G37*
%TD.AperFunction*%
%TA.AperFunction,Conductor*%
G36*
X140888546Y-93262279D02*
G01*
X140934898Y-93314559D01*
X140945626Y-93383600D01*
X140917326Y-93447482D01*
X140910379Y-93455029D01*
X140881021Y-93484388D01*
X140851642Y-93513767D01*
X123854173Y-110511235D01*
X123854165Y-110511243D01*
X123851270Y-110514139D01*
X123851267Y-110514142D01*
X123764142Y-110601267D01*
X123732557Y-110648537D01*
X123695688Y-110703714D01*
X123665628Y-110776286D01*
X123652409Y-110808199D01*
X123648538Y-110817545D01*
X123648535Y-110817553D01*
X123624500Y-110938389D01*
X123624500Y-121926533D01*
X123618246Y-121947829D01*
X123616644Y-121969967D01*
X123608594Y-121980700D01*
X123604815Y-121993572D01*
X123588043Y-122008104D01*
X123574725Y-122025864D01*
X123555387Y-122036401D01*
X123552011Y-122039327D01*
X123543733Y-122042752D01*
X123543233Y-122042938D01*
X123473538Y-122047862D01*
X123456668Y-122042901D01*
X123357485Y-122005909D01*
X123357483Y-122005908D01*
X123297883Y-121999501D01*
X123297881Y-121999500D01*
X123297873Y-121999500D01*
X123297865Y-121999500D01*
X122379500Y-121999500D01*
X122312461Y-121979815D01*
X122266706Y-121927011D01*
X122255500Y-121875500D01*
X122255500Y-106143633D01*
X122275185Y-106076594D01*
X122291212Y-106056563D01*
X134826263Y-93347413D01*
X134887353Y-93313506D01*
X134913136Y-93310496D01*
X140821290Y-93243357D01*
X140888546Y-93262279D01*
G37*
%TD.AperFunction*%
%TA.AperFunction,Conductor*%
G36*
X151790703Y-100675741D02*
G01*
X151797181Y-100681773D01*
X151835586Y-100720178D01*
X151835608Y-100720198D01*
X158321016Y-107205606D01*
X158321045Y-107205637D01*
X158411263Y-107295855D01*
X158411267Y-107295858D01*
X158513707Y-107364307D01*
X158513713Y-107364310D01*
X158513714Y-107364311D01*
X158627548Y-107411463D01*
X158687971Y-107423481D01*
X158748393Y-107435500D01*
X158748394Y-107435500D01*
X159064308Y-107435500D01*
X159131347Y-107455185D01*
X159177102Y-107507989D01*
X159187046Y-107577147D01*
X159171041Y-107622620D01*
X159143254Y-107669605D01*
X159143254Y-107669606D01*
X159097402Y-107827426D01*
X159097401Y-107827432D01*
X159094500Y-107864298D01*
X159094500Y-108295701D01*
X159097401Y-108332565D01*
X159144509Y-108494712D01*
X159144309Y-108564582D01*
X159106367Y-108623252D01*
X159042728Y-108652095D01*
X158990837Y-108648383D01*
X158832573Y-108602402D01*
X158832567Y-108602401D01*
X158795701Y-108599500D01*
X158795694Y-108599500D01*
X158364306Y-108599500D01*
X158364298Y-108599500D01*
X158327432Y-108602401D01*
X158327426Y-108602402D01*
X158169606Y-108648254D01*
X158169603Y-108648255D01*
X158028137Y-108731917D01*
X158021969Y-108736702D01*
X158020072Y-108734256D01*
X157971358Y-108760857D01*
X157901666Y-108755873D01*
X157869296Y-108735069D01*
X157868031Y-108736702D01*
X157861862Y-108731917D01*
X157726889Y-108652095D01*
X157720398Y-108648256D01*
X157720397Y-108648255D01*
X157720396Y-108648255D01*
X157720393Y-108648254D01*
X157562573Y-108602402D01*
X157562567Y-108602401D01*
X157525701Y-108599500D01*
X157525694Y-108599500D01*
X157094306Y-108599500D01*
X157094298Y-108599500D01*
X157057432Y-108602401D01*
X157057426Y-108602402D01*
X156899606Y-108648254D01*
X156899603Y-108648255D01*
X156758137Y-108731917D01*
X156751969Y-108736702D01*
X156750072Y-108734256D01*
X156701358Y-108760857D01*
X156631666Y-108755873D01*
X156599296Y-108735069D01*
X156598031Y-108736702D01*
X156591862Y-108731917D01*
X156456889Y-108652095D01*
X156450398Y-108648256D01*
X156450397Y-108648255D01*
X156450396Y-108648255D01*
X156450393Y-108648254D01*
X156292573Y-108602402D01*
X156292567Y-108602401D01*
X156255701Y-108599500D01*
X156255694Y-108599500D01*
X155824306Y-108599500D01*
X155824298Y-108599500D01*
X155787432Y-108602401D01*
X155787426Y-108602402D01*
X155629606Y-108648254D01*
X155629603Y-108648255D01*
X155488137Y-108731917D01*
X155481969Y-108736702D01*
X155480072Y-108734256D01*
X155431358Y-108760857D01*
X155361666Y-108755873D01*
X155329296Y-108735069D01*
X155328031Y-108736702D01*
X155321862Y-108731917D01*
X155186889Y-108652095D01*
X155180398Y-108648256D01*
X155180397Y-108648255D01*
X155180396Y-108648255D01*
X155180393Y-108648254D01*
X155022573Y-108602402D01*
X155022567Y-108602401D01*
X154985701Y-108599500D01*
X154985694Y-108599500D01*
X154554306Y-108599500D01*
X154554298Y-108599500D01*
X154517432Y-108602401D01*
X154517426Y-108602402D01*
X154359606Y-108648254D01*
X154359603Y-108648255D01*
X154218137Y-108731917D01*
X154218129Y-108731923D01*
X154101923Y-108848129D01*
X154101917Y-108848137D01*
X154018255Y-108989603D01*
X154018254Y-108989606D01*
X153972402Y-109147426D01*
X153972401Y-109147432D01*
X153969500Y-109184298D01*
X153969500Y-110490694D01*
X153972401Y-110527567D01*
X153972402Y-110527573D01*
X154018254Y-110685393D01*
X154018255Y-110685396D01*
X154018256Y-110685398D01*
X154101919Y-110826865D01*
X154108179Y-110833125D01*
X154141665Y-110894445D01*
X154144500Y-110920808D01*
X154144500Y-118183758D01*
X154124815Y-118250797D01*
X154072011Y-118296552D01*
X154002853Y-118306496D01*
X153939297Y-118277471D01*
X153932819Y-118271439D01*
X153411819Y-117750439D01*
X153378334Y-117689116D01*
X153375500Y-117662758D01*
X153375500Y-110938393D01*
X153375499Y-110938389D01*
X153351464Y-110817553D01*
X153351463Y-110817552D01*
X153351463Y-110817548D01*
X153334372Y-110776286D01*
X153304312Y-110703714D01*
X153267443Y-110648537D01*
X153235858Y-110601267D01*
X153235856Y-110601264D01*
X153145637Y-110511045D01*
X153145606Y-110511016D01*
X153066819Y-110432229D01*
X153033334Y-110370906D01*
X153030500Y-110344548D01*
X153030500Y-109184313D01*
X153030499Y-109184298D01*
X153029716Y-109174352D01*
X153027598Y-109147431D01*
X153020148Y-109121789D01*
X152981745Y-108989606D01*
X152981744Y-108989603D01*
X152981744Y-108989602D01*
X152898081Y-108848135D01*
X152898079Y-108848133D01*
X152898076Y-108848129D01*
X152781870Y-108731923D01*
X152781862Y-108731917D01*
X152646889Y-108652095D01*
X152640398Y-108648256D01*
X152640397Y-108648255D01*
X152640396Y-108648255D01*
X152640393Y-108648254D01*
X152482573Y-108602402D01*
X152482567Y-108602401D01*
X152445701Y-108599500D01*
X152445694Y-108599500D01*
X152014306Y-108599500D01*
X152014298Y-108599500D01*
X151977432Y-108602401D01*
X151977426Y-108602402D01*
X151819606Y-108648254D01*
X151819603Y-108648255D01*
X151678137Y-108731917D01*
X151671969Y-108736702D01*
X151670072Y-108734256D01*
X151621358Y-108760857D01*
X151551666Y-108755873D01*
X151519296Y-108735069D01*
X151518031Y-108736702D01*
X151511862Y-108731917D01*
X151376889Y-108652095D01*
X151370398Y-108648256D01*
X151370397Y-108648255D01*
X151370396Y-108648255D01*
X151370393Y-108648254D01*
X151212573Y-108602402D01*
X151212567Y-108602401D01*
X151175701Y-108599500D01*
X151175694Y-108599500D01*
X150744306Y-108599500D01*
X150744298Y-108599500D01*
X150707432Y-108602401D01*
X150707426Y-108602402D01*
X150549162Y-108648383D01*
X150479293Y-108648184D01*
X150420623Y-108610242D01*
X150391779Y-108546603D01*
X150395491Y-108494712D01*
X150442597Y-108332573D01*
X150442598Y-108332567D01*
X150445499Y-108295701D01*
X150445500Y-108295694D01*
X150445500Y-108072353D01*
X150465185Y-108005314D01*
X150517989Y-107959559D01*
X150587147Y-107949615D01*
X150616952Y-107957792D01*
X150766498Y-108019735D01*
X150766503Y-108019737D01*
X150921153Y-108050499D01*
X150921156Y-108050500D01*
X150921158Y-108050500D01*
X151078844Y-108050500D01*
X151078845Y-108050499D01*
X151233497Y-108019737D01*
X151379179Y-107959394D01*
X151510289Y-107871789D01*
X151621789Y-107760289D01*
X151709394Y-107629179D01*
X151769737Y-107483497D01*
X151800500Y-107328842D01*
X151800500Y-107171158D01*
X151800500Y-107171155D01*
X151800499Y-107171153D01*
X151769738Y-107016510D01*
X151769737Y-107016503D01*
X151769735Y-107016498D01*
X151709397Y-106870827D01*
X151709390Y-106870814D01*
X151621789Y-106739711D01*
X151617924Y-106735001D01*
X151618826Y-106734260D01*
X151588334Y-106678417D01*
X151585500Y-106652059D01*
X151585500Y-100769454D01*
X151605185Y-100702415D01*
X151657989Y-100656660D01*
X151727147Y-100646716D01*
X151790703Y-100675741D01*
G37*
%TD.AperFunction*%
%TA.AperFunction,Conductor*%
G36*
X161558073Y-93027399D02*
G01*
X161579904Y-93044788D01*
X161958181Y-93423065D01*
X161991666Y-93484388D01*
X161994500Y-93510746D01*
X161994500Y-102448640D01*
X161997397Y-102502688D01*
X161997397Y-102502689D01*
X162000229Y-102529022D01*
X162000232Y-102529049D01*
X162008885Y-102582445D01*
X162008885Y-102582446D01*
X162055768Y-102708141D01*
X162059168Y-102717257D01*
X162092653Y-102778580D01*
X162178877Y-102893761D01*
X162178881Y-102893765D01*
X162178886Y-102893771D01*
X162405930Y-103120814D01*
X162606239Y-103321123D01*
X162606246Y-103321129D01*
X162606262Y-103321144D01*
X162646480Y-103357271D01*
X162646492Y-103357281D01*
X162646500Y-103357288D01*
X162656299Y-103365184D01*
X162667140Y-103373921D01*
X162667981Y-103374562D01*
X162668046Y-103374651D01*
X162668436Y-103374965D01*
X162668352Y-103375068D01*
X162709350Y-103430868D01*
X162713712Y-103500601D01*
X162694285Y-103544393D01*
X162688090Y-103553219D01*
X162679660Y-103561650D01*
X162661416Y-103591227D01*
X162659308Y-103594232D01*
X162634756Y-103613812D01*
X162611399Y-103634822D01*
X162607226Y-103635770D01*
X162604684Y-103637798D01*
X162593066Y-103638987D01*
X162557809Y-103647000D01*
X161599213Y-103647000D01*
X161532174Y-103627315D01*
X161486419Y-103574511D01*
X161476475Y-103505353D01*
X161492481Y-103459879D01*
X161521744Y-103410398D01*
X161562610Y-103269737D01*
X161567597Y-103252573D01*
X161567598Y-103252567D01*
X161570500Y-103215694D01*
X161570500Y-102784306D01*
X161567598Y-102747431D01*
X161562610Y-102730264D01*
X161521745Y-102589606D01*
X161521744Y-102589603D01*
X161521744Y-102589602D01*
X161438081Y-102448135D01*
X161438078Y-102448132D01*
X161433298Y-102441969D01*
X161435750Y-102440066D01*
X161409155Y-102391421D01*
X161414104Y-102321726D01*
X161434940Y-102289304D01*
X161433298Y-102288031D01*
X161438075Y-102281870D01*
X161438081Y-102281865D01*
X161521744Y-102140398D01*
X161555505Y-102024191D01*
X161567597Y-101982573D01*
X161567598Y-101982567D01*
X161570499Y-101945701D01*
X161570500Y-101945694D01*
X161570500Y-101514306D01*
X161567598Y-101477431D01*
X161521744Y-101319602D01*
X161438081Y-101178135D01*
X161438078Y-101178132D01*
X161433298Y-101171969D01*
X161435750Y-101170066D01*
X161409155Y-101121421D01*
X161414104Y-101051726D01*
X161434940Y-101019304D01*
X161433298Y-101018031D01*
X161438075Y-101011870D01*
X161438081Y-101011865D01*
X161521744Y-100870398D01*
X161566642Y-100715860D01*
X161567597Y-100712573D01*
X161567598Y-100712567D01*
X161568397Y-100702415D01*
X161570500Y-100675694D01*
X161570500Y-100244306D01*
X161567598Y-100207431D01*
X161556256Y-100168393D01*
X161521745Y-100049606D01*
X161521744Y-100049603D01*
X161521744Y-100049602D01*
X161438081Y-99908135D01*
X161438078Y-99908132D01*
X161433298Y-99901969D01*
X161435750Y-99900066D01*
X161409155Y-99851421D01*
X161414104Y-99781726D01*
X161434940Y-99749304D01*
X161433298Y-99748031D01*
X161438075Y-99741870D01*
X161438081Y-99741865D01*
X161521744Y-99600398D01*
X161567598Y-99442569D01*
X161570500Y-99405694D01*
X161570500Y-98974306D01*
X161567598Y-98937431D01*
X161550393Y-98878213D01*
X161521745Y-98779606D01*
X161521744Y-98779603D01*
X161521744Y-98779602D01*
X161438081Y-98638135D01*
X161438078Y-98638132D01*
X161433298Y-98631969D01*
X161435750Y-98630066D01*
X161409155Y-98581421D01*
X161414104Y-98511726D01*
X161434940Y-98479304D01*
X161433298Y-98478031D01*
X161438075Y-98471870D01*
X161438081Y-98471865D01*
X161521744Y-98330398D01*
X161567598Y-98172569D01*
X161570500Y-98135694D01*
X161570500Y-97704306D01*
X161567598Y-97667431D01*
X161556203Y-97628211D01*
X161521745Y-97509606D01*
X161521744Y-97509603D01*
X161521744Y-97509602D01*
X161438081Y-97368135D01*
X161438079Y-97368133D01*
X161438076Y-97368129D01*
X161321870Y-97251923D01*
X161321862Y-97251917D01*
X161208619Y-97184946D01*
X161180398Y-97168256D01*
X161180397Y-97168255D01*
X161180396Y-97168255D01*
X161180393Y-97168254D01*
X161022573Y-97122402D01*
X161022567Y-97122401D01*
X160985701Y-97119500D01*
X160985694Y-97119500D01*
X159679306Y-97119500D01*
X159679298Y-97119500D01*
X159642432Y-97122401D01*
X159642426Y-97122402D01*
X159484606Y-97168254D01*
X159484603Y-97168255D01*
X159343137Y-97251917D01*
X159343129Y-97251923D01*
X159336872Y-97258181D01*
X159275549Y-97291666D01*
X159249191Y-97294500D01*
X158111122Y-97294500D01*
X158044083Y-97274815D01*
X157998328Y-97222011D01*
X157988384Y-97152853D01*
X158004390Y-97107379D01*
X158017872Y-97084582D01*
X158061744Y-97010398D01*
X158107598Y-96852569D01*
X158110500Y-96815694D01*
X158110500Y-95509306D01*
X158107598Y-95472431D01*
X158100264Y-95447188D01*
X158061745Y-95314606D01*
X158061744Y-95314603D01*
X158061744Y-95314602D01*
X157978081Y-95173135D01*
X157978079Y-95173133D01*
X157978076Y-95173129D01*
X157971819Y-95166872D01*
X157957115Y-95139944D01*
X157940523Y-95114126D01*
X157939631Y-95107925D01*
X157938334Y-95105549D01*
X157935500Y-95079191D01*
X157935500Y-94865649D01*
X157955185Y-94798610D01*
X157994404Y-94760110D01*
X157996923Y-94758556D01*
X158018350Y-94745340D01*
X158140340Y-94623350D01*
X158230908Y-94476516D01*
X158285174Y-94312753D01*
X158295500Y-94211677D01*
X158295499Y-93613324D01*
X158285174Y-93512247D01*
X158230908Y-93348484D01*
X158160432Y-93234225D01*
X158141993Y-93166835D01*
X158162915Y-93100171D01*
X158216557Y-93055401D01*
X158264561Y-93045138D01*
X161490814Y-93008477D01*
X161558073Y-93027399D01*
G37*
%TD.AperFunction*%
%TD*%
M02*
