%TF.GenerationSoftware,KiCad,Pcbnew,9.0.0*%
%TF.CreationDate,2025-05-20T18:18:11-06:00*%
%TF.ProjectId,GB_Card32k,47425f43-6172-4643-9332-6b2e6b696361,rev?*%
%TF.SameCoordinates,Original*%
%TF.FileFunction,Legend,Top*%
%TF.FilePolarity,Positive*%
%FSLAX46Y46*%
G04 Gerber Fmt 4.6, Leading zero omitted, Abs format (unit mm)*
G04 Created by KiCad (PCBNEW 9.0.0) date 2025-05-20 18:18:11*
%MOMM*%
%LPD*%
G01*
G04 APERTURE LIST*
%ADD10C,0.100000*%
%ADD11C,0.300000*%
%ADD12C,0.125000*%
%ADD13C,0.150000*%
%ADD14C,0.120000*%
G04 APERTURE END LIST*
D10*
X128856265Y-99367657D02*
X128903884Y-99320038D01*
X128903884Y-99320038D02*
X128999122Y-99272419D01*
X128999122Y-99272419D02*
X129237217Y-99272419D01*
X129237217Y-99272419D02*
X129332455Y-99320038D01*
X129332455Y-99320038D02*
X129380074Y-99367657D01*
X129380074Y-99367657D02*
X129427693Y-99462895D01*
X129427693Y-99462895D02*
X129427693Y-99558133D01*
X129427693Y-99558133D02*
X129380074Y-99700990D01*
X129380074Y-99700990D02*
X128808646Y-100272419D01*
X128808646Y-100272419D02*
X129427693Y-100272419D01*
X130046741Y-99272419D02*
X130141979Y-99272419D01*
X130141979Y-99272419D02*
X130237217Y-99320038D01*
X130237217Y-99320038D02*
X130284836Y-99367657D01*
X130284836Y-99367657D02*
X130332455Y-99462895D01*
X130332455Y-99462895D02*
X130380074Y-99653371D01*
X130380074Y-99653371D02*
X130380074Y-99891466D01*
X130380074Y-99891466D02*
X130332455Y-100081942D01*
X130332455Y-100081942D02*
X130284836Y-100177180D01*
X130284836Y-100177180D02*
X130237217Y-100224800D01*
X130237217Y-100224800D02*
X130141979Y-100272419D01*
X130141979Y-100272419D02*
X130046741Y-100272419D01*
X130046741Y-100272419D02*
X129951503Y-100224800D01*
X129951503Y-100224800D02*
X129903884Y-100177180D01*
X129903884Y-100177180D02*
X129856265Y-100081942D01*
X129856265Y-100081942D02*
X129808646Y-99891466D01*
X129808646Y-99891466D02*
X129808646Y-99653371D01*
X129808646Y-99653371D02*
X129856265Y-99462895D01*
X129856265Y-99462895D02*
X129903884Y-99367657D01*
X129903884Y-99367657D02*
X129951503Y-99320038D01*
X129951503Y-99320038D02*
X130046741Y-99272419D01*
X130761027Y-99367657D02*
X130808646Y-99320038D01*
X130808646Y-99320038D02*
X130903884Y-99272419D01*
X130903884Y-99272419D02*
X131141979Y-99272419D01*
X131141979Y-99272419D02*
X131237217Y-99320038D01*
X131237217Y-99320038D02*
X131284836Y-99367657D01*
X131284836Y-99367657D02*
X131332455Y-99462895D01*
X131332455Y-99462895D02*
X131332455Y-99558133D01*
X131332455Y-99558133D02*
X131284836Y-99700990D01*
X131284836Y-99700990D02*
X130713408Y-100272419D01*
X130713408Y-100272419D02*
X131332455Y-100272419D01*
X132237217Y-99272419D02*
X131761027Y-99272419D01*
X131761027Y-99272419D02*
X131713408Y-99748609D01*
X131713408Y-99748609D02*
X131761027Y-99700990D01*
X131761027Y-99700990D02*
X131856265Y-99653371D01*
X131856265Y-99653371D02*
X132094360Y-99653371D01*
X132094360Y-99653371D02*
X132189598Y-99700990D01*
X132189598Y-99700990D02*
X132237217Y-99748609D01*
X132237217Y-99748609D02*
X132284836Y-99843847D01*
X132284836Y-99843847D02*
X132284836Y-100081942D01*
X132284836Y-100081942D02*
X132237217Y-100177180D01*
X132237217Y-100177180D02*
X132189598Y-100224800D01*
X132189598Y-100224800D02*
X132094360Y-100272419D01*
X132094360Y-100272419D02*
X131856265Y-100272419D01*
X131856265Y-100272419D02*
X131761027Y-100224800D01*
X131761027Y-100224800D02*
X131713408Y-100177180D01*
D11*
X126340225Y-97100828D02*
X126840225Y-98600828D01*
X126840225Y-98600828D02*
X127340225Y-97100828D01*
X128411653Y-98529400D02*
X128268796Y-98600828D01*
X128268796Y-98600828D02*
X127983082Y-98600828D01*
X127983082Y-98600828D02*
X127840224Y-98529400D01*
X127840224Y-98529400D02*
X127768796Y-98386542D01*
X127768796Y-98386542D02*
X127768796Y-97815114D01*
X127768796Y-97815114D02*
X127840224Y-97672257D01*
X127840224Y-97672257D02*
X127983082Y-97600828D01*
X127983082Y-97600828D02*
X128268796Y-97600828D01*
X128268796Y-97600828D02*
X128411653Y-97672257D01*
X128411653Y-97672257D02*
X128483082Y-97815114D01*
X128483082Y-97815114D02*
X128483082Y-97957971D01*
X128483082Y-97957971D02*
X127768796Y-98100828D01*
X129125938Y-98600828D02*
X129125938Y-97600828D01*
X129125938Y-97886542D02*
X129197367Y-97743685D01*
X129197367Y-97743685D02*
X129268796Y-97672257D01*
X129268796Y-97672257D02*
X129411653Y-97600828D01*
X129411653Y-97600828D02*
X129554510Y-97600828D01*
X130054509Y-98457971D02*
X130125938Y-98529400D01*
X130125938Y-98529400D02*
X130054509Y-98600828D01*
X130054509Y-98600828D02*
X129983081Y-98529400D01*
X129983081Y-98529400D02*
X130054509Y-98457971D01*
X130054509Y-98457971D02*
X130054509Y-98600828D01*
X130054509Y-97672257D02*
X130125938Y-97743685D01*
X130125938Y-97743685D02*
X130054509Y-97815114D01*
X130054509Y-97815114D02*
X129983081Y-97743685D01*
X129983081Y-97743685D02*
X130054509Y-97672257D01*
X130054509Y-97672257D02*
X130054509Y-97815114D01*
X132697367Y-98600828D02*
X131840224Y-98600828D01*
X132268795Y-98600828D02*
X132268795Y-97100828D01*
X132268795Y-97100828D02*
X132125938Y-97315114D01*
X132125938Y-97315114D02*
X131983081Y-97457971D01*
X131983081Y-97457971D02*
X131840224Y-97529400D01*
X133340223Y-98457971D02*
X133411652Y-98529400D01*
X133411652Y-98529400D02*
X133340223Y-98600828D01*
X133340223Y-98600828D02*
X133268795Y-98529400D01*
X133268795Y-98529400D02*
X133340223Y-98457971D01*
X133340223Y-98457971D02*
X133340223Y-98600828D01*
X134340224Y-97100828D02*
X134483081Y-97100828D01*
X134483081Y-97100828D02*
X134625938Y-97172257D01*
X134625938Y-97172257D02*
X134697367Y-97243685D01*
X134697367Y-97243685D02*
X134768795Y-97386542D01*
X134768795Y-97386542D02*
X134840224Y-97672257D01*
X134840224Y-97672257D02*
X134840224Y-98029400D01*
X134840224Y-98029400D02*
X134768795Y-98315114D01*
X134768795Y-98315114D02*
X134697367Y-98457971D01*
X134697367Y-98457971D02*
X134625938Y-98529400D01*
X134625938Y-98529400D02*
X134483081Y-98600828D01*
X134483081Y-98600828D02*
X134340224Y-98600828D01*
X134340224Y-98600828D02*
X134197367Y-98529400D01*
X134197367Y-98529400D02*
X134125938Y-98457971D01*
X134125938Y-98457971D02*
X134054509Y-98315114D01*
X134054509Y-98315114D02*
X133983081Y-98029400D01*
X133983081Y-98029400D02*
X133983081Y-97672257D01*
X133983081Y-97672257D02*
X134054509Y-97386542D01*
X134054509Y-97386542D02*
X134125938Y-97243685D01*
X134125938Y-97243685D02*
X134197367Y-97172257D01*
X134197367Y-97172257D02*
X134340224Y-97100828D01*
X122211653Y-94900828D02*
X123140225Y-94900828D01*
X123140225Y-94900828D02*
X122640225Y-95472257D01*
X122640225Y-95472257D02*
X122854510Y-95472257D01*
X122854510Y-95472257D02*
X122997368Y-95543685D01*
X122997368Y-95543685D02*
X123068796Y-95615114D01*
X123068796Y-95615114D02*
X123140225Y-95757971D01*
X123140225Y-95757971D02*
X123140225Y-96115114D01*
X123140225Y-96115114D02*
X123068796Y-96257971D01*
X123068796Y-96257971D02*
X122997368Y-96329400D01*
X122997368Y-96329400D02*
X122854510Y-96400828D01*
X122854510Y-96400828D02*
X122425939Y-96400828D01*
X122425939Y-96400828D02*
X122283082Y-96329400D01*
X122283082Y-96329400D02*
X122211653Y-96257971D01*
X123711653Y-95043685D02*
X123783081Y-94972257D01*
X123783081Y-94972257D02*
X123925939Y-94900828D01*
X123925939Y-94900828D02*
X124283081Y-94900828D01*
X124283081Y-94900828D02*
X124425939Y-94972257D01*
X124425939Y-94972257D02*
X124497367Y-95043685D01*
X124497367Y-95043685D02*
X124568796Y-95186542D01*
X124568796Y-95186542D02*
X124568796Y-95329400D01*
X124568796Y-95329400D02*
X124497367Y-95543685D01*
X124497367Y-95543685D02*
X123640224Y-96400828D01*
X123640224Y-96400828D02*
X124568796Y-96400828D01*
X125211652Y-96400828D02*
X125211652Y-94900828D01*
X125354510Y-95829400D02*
X125783081Y-96400828D01*
X125783081Y-95400828D02*
X125211652Y-95972257D01*
X128068795Y-95615114D02*
X127568795Y-95615114D01*
X127568795Y-96400828D02*
X127568795Y-94900828D01*
X127568795Y-94900828D02*
X128283081Y-94900828D01*
X129068795Y-96400828D02*
X128925938Y-96329400D01*
X128925938Y-96329400D02*
X128854509Y-96186542D01*
X128854509Y-96186542D02*
X128854509Y-94900828D01*
X130283081Y-96400828D02*
X130283081Y-95615114D01*
X130283081Y-95615114D02*
X130211652Y-95472257D01*
X130211652Y-95472257D02*
X130068795Y-95400828D01*
X130068795Y-95400828D02*
X129783081Y-95400828D01*
X129783081Y-95400828D02*
X129640223Y-95472257D01*
X130283081Y-96329400D02*
X130140223Y-96400828D01*
X130140223Y-96400828D02*
X129783081Y-96400828D01*
X129783081Y-96400828D02*
X129640223Y-96329400D01*
X129640223Y-96329400D02*
X129568795Y-96186542D01*
X129568795Y-96186542D02*
X129568795Y-96043685D01*
X129568795Y-96043685D02*
X129640223Y-95900828D01*
X129640223Y-95900828D02*
X129783081Y-95829400D01*
X129783081Y-95829400D02*
X130140223Y-95829400D01*
X130140223Y-95829400D02*
X130283081Y-95757971D01*
X130925938Y-96329400D02*
X131068795Y-96400828D01*
X131068795Y-96400828D02*
X131354509Y-96400828D01*
X131354509Y-96400828D02*
X131497366Y-96329400D01*
X131497366Y-96329400D02*
X131568795Y-96186542D01*
X131568795Y-96186542D02*
X131568795Y-96115114D01*
X131568795Y-96115114D02*
X131497366Y-95972257D01*
X131497366Y-95972257D02*
X131354509Y-95900828D01*
X131354509Y-95900828D02*
X131140224Y-95900828D01*
X131140224Y-95900828D02*
X130997366Y-95829400D01*
X130997366Y-95829400D02*
X130925938Y-95686542D01*
X130925938Y-95686542D02*
X130925938Y-95615114D01*
X130925938Y-95615114D02*
X130997366Y-95472257D01*
X130997366Y-95472257D02*
X131140224Y-95400828D01*
X131140224Y-95400828D02*
X131354509Y-95400828D01*
X131354509Y-95400828D02*
X131497366Y-95472257D01*
X132211652Y-96400828D02*
X132211652Y-94900828D01*
X132854510Y-96400828D02*
X132854510Y-95615114D01*
X132854510Y-95615114D02*
X132783081Y-95472257D01*
X132783081Y-95472257D02*
X132640224Y-95400828D01*
X132640224Y-95400828D02*
X132425938Y-95400828D01*
X132425938Y-95400828D02*
X132283081Y-95472257D01*
X132283081Y-95472257D02*
X132211652Y-95543685D01*
X135568795Y-96257971D02*
X135497367Y-96329400D01*
X135497367Y-96329400D02*
X135283081Y-96400828D01*
X135283081Y-96400828D02*
X135140224Y-96400828D01*
X135140224Y-96400828D02*
X134925938Y-96329400D01*
X134925938Y-96329400D02*
X134783081Y-96186542D01*
X134783081Y-96186542D02*
X134711652Y-96043685D01*
X134711652Y-96043685D02*
X134640224Y-95757971D01*
X134640224Y-95757971D02*
X134640224Y-95543685D01*
X134640224Y-95543685D02*
X134711652Y-95257971D01*
X134711652Y-95257971D02*
X134783081Y-95115114D01*
X134783081Y-95115114D02*
X134925938Y-94972257D01*
X134925938Y-94972257D02*
X135140224Y-94900828D01*
X135140224Y-94900828D02*
X135283081Y-94900828D01*
X135283081Y-94900828D02*
X135497367Y-94972257D01*
X135497367Y-94972257D02*
X135568795Y-95043685D01*
X136854510Y-96400828D02*
X136854510Y-95615114D01*
X136854510Y-95615114D02*
X136783081Y-95472257D01*
X136783081Y-95472257D02*
X136640224Y-95400828D01*
X136640224Y-95400828D02*
X136354510Y-95400828D01*
X136354510Y-95400828D02*
X136211652Y-95472257D01*
X136854510Y-96329400D02*
X136711652Y-96400828D01*
X136711652Y-96400828D02*
X136354510Y-96400828D01*
X136354510Y-96400828D02*
X136211652Y-96329400D01*
X136211652Y-96329400D02*
X136140224Y-96186542D01*
X136140224Y-96186542D02*
X136140224Y-96043685D01*
X136140224Y-96043685D02*
X136211652Y-95900828D01*
X136211652Y-95900828D02*
X136354510Y-95829400D01*
X136354510Y-95829400D02*
X136711652Y-95829400D01*
X136711652Y-95829400D02*
X136854510Y-95757971D01*
X137568795Y-96400828D02*
X137568795Y-95400828D01*
X137568795Y-95686542D02*
X137640224Y-95543685D01*
X137640224Y-95543685D02*
X137711653Y-95472257D01*
X137711653Y-95472257D02*
X137854510Y-95400828D01*
X137854510Y-95400828D02*
X137997367Y-95400828D01*
X138283081Y-95400828D02*
X138854509Y-95400828D01*
X138497366Y-94900828D02*
X138497366Y-96186542D01*
X138497366Y-96186542D02*
X138568795Y-96329400D01*
X138568795Y-96329400D02*
X138711652Y-96400828D01*
X138711652Y-96400828D02*
X138854509Y-96400828D01*
D12*
X152396521Y-105720071D02*
X152396521Y-106148642D01*
X152396521Y-106148642D02*
X152367950Y-106234357D01*
X152367950Y-106234357D02*
X152310807Y-106291500D01*
X152310807Y-106291500D02*
X152225093Y-106320071D01*
X152225093Y-106320071D02*
X152167950Y-106320071D01*
X152967950Y-106320071D02*
X152682236Y-106320071D01*
X152682236Y-106320071D02*
X152682236Y-105720071D01*
X153510807Y-106262928D02*
X153482235Y-106291500D01*
X153482235Y-106291500D02*
X153396521Y-106320071D01*
X153396521Y-106320071D02*
X153339378Y-106320071D01*
X153339378Y-106320071D02*
X153253664Y-106291500D01*
X153253664Y-106291500D02*
X153196521Y-106234357D01*
X153196521Y-106234357D02*
X153167950Y-106177214D01*
X153167950Y-106177214D02*
X153139378Y-106062928D01*
X153139378Y-106062928D02*
X153139378Y-105977214D01*
X153139378Y-105977214D02*
X153167950Y-105862928D01*
X153167950Y-105862928D02*
X153196521Y-105805785D01*
X153196521Y-105805785D02*
X153253664Y-105748642D01*
X153253664Y-105748642D02*
X153339378Y-105720071D01*
X153339378Y-105720071D02*
X153396521Y-105720071D01*
X153396521Y-105720071D02*
X153482235Y-105748642D01*
X153482235Y-105748642D02*
X153510807Y-105777214D01*
X153939378Y-105720071D02*
X153939378Y-106148642D01*
X153939378Y-106148642D02*
X153910807Y-106234357D01*
X153910807Y-106234357D02*
X153853664Y-106291500D01*
X153853664Y-106291500D02*
X153767950Y-106320071D01*
X153767950Y-106320071D02*
X153710807Y-106320071D01*
X154510807Y-106320071D02*
X154225093Y-106320071D01*
X154225093Y-106320071D02*
X154225093Y-105720071D01*
X155053664Y-106262928D02*
X155025092Y-106291500D01*
X155025092Y-106291500D02*
X154939378Y-106320071D01*
X154939378Y-106320071D02*
X154882235Y-106320071D01*
X154882235Y-106320071D02*
X154796521Y-106291500D01*
X154796521Y-106291500D02*
X154739378Y-106234357D01*
X154739378Y-106234357D02*
X154710807Y-106177214D01*
X154710807Y-106177214D02*
X154682235Y-106062928D01*
X154682235Y-106062928D02*
X154682235Y-105977214D01*
X154682235Y-105977214D02*
X154710807Y-105862928D01*
X154710807Y-105862928D02*
X154739378Y-105805785D01*
X154739378Y-105805785D02*
X154796521Y-105748642D01*
X154796521Y-105748642D02*
X154882235Y-105720071D01*
X154882235Y-105720071D02*
X154939378Y-105720071D01*
X154939378Y-105720071D02*
X155025092Y-105748642D01*
X155025092Y-105748642D02*
X155053664Y-105777214D01*
X155482235Y-105720071D02*
X155482235Y-106148642D01*
X155482235Y-106148642D02*
X155453664Y-106234357D01*
X155453664Y-106234357D02*
X155396521Y-106291500D01*
X155396521Y-106291500D02*
X155310807Y-106320071D01*
X155310807Y-106320071D02*
X155253664Y-106320071D01*
X156053664Y-106320071D02*
X155767950Y-106320071D01*
X155767950Y-106320071D02*
X155767950Y-105720071D01*
X156596521Y-106262928D02*
X156567949Y-106291500D01*
X156567949Y-106291500D02*
X156482235Y-106320071D01*
X156482235Y-106320071D02*
X156425092Y-106320071D01*
X156425092Y-106320071D02*
X156339378Y-106291500D01*
X156339378Y-106291500D02*
X156282235Y-106234357D01*
X156282235Y-106234357D02*
X156253664Y-106177214D01*
X156253664Y-106177214D02*
X156225092Y-106062928D01*
X156225092Y-106062928D02*
X156225092Y-105977214D01*
X156225092Y-105977214D02*
X156253664Y-105862928D01*
X156253664Y-105862928D02*
X156282235Y-105805785D01*
X156282235Y-105805785D02*
X156339378Y-105748642D01*
X156339378Y-105748642D02*
X156425092Y-105720071D01*
X156425092Y-105720071D02*
X156482235Y-105720071D01*
X156482235Y-105720071D02*
X156567949Y-105748642D01*
X156567949Y-105748642D02*
X156596521Y-105777214D01*
X157025092Y-105720071D02*
X157025092Y-106148642D01*
X157025092Y-106148642D02*
X156996521Y-106234357D01*
X156996521Y-106234357D02*
X156939378Y-106291500D01*
X156939378Y-106291500D02*
X156853664Y-106320071D01*
X156853664Y-106320071D02*
X156796521Y-106320071D01*
X157596521Y-106320071D02*
X157310807Y-106320071D01*
X157310807Y-106320071D02*
X157310807Y-105720071D01*
X158139378Y-106262928D02*
X158110806Y-106291500D01*
X158110806Y-106291500D02*
X158025092Y-106320071D01*
X158025092Y-106320071D02*
X157967949Y-106320071D01*
X157967949Y-106320071D02*
X157882235Y-106291500D01*
X157882235Y-106291500D02*
X157825092Y-106234357D01*
X157825092Y-106234357D02*
X157796521Y-106177214D01*
X157796521Y-106177214D02*
X157767949Y-106062928D01*
X157767949Y-106062928D02*
X157767949Y-105977214D01*
X157767949Y-105977214D02*
X157796521Y-105862928D01*
X157796521Y-105862928D02*
X157825092Y-105805785D01*
X157825092Y-105805785D02*
X157882235Y-105748642D01*
X157882235Y-105748642D02*
X157967949Y-105720071D01*
X157967949Y-105720071D02*
X158025092Y-105720071D01*
X158025092Y-105720071D02*
X158110806Y-105748642D01*
X158110806Y-105748642D02*
X158139378Y-105777214D01*
X121339378Y-121920071D02*
X120996521Y-121920071D01*
X121167950Y-121920071D02*
X121167950Y-121320071D01*
X121167950Y-121320071D02*
X121110807Y-121405785D01*
X121110807Y-121405785D02*
X121053664Y-121462928D01*
X121053664Y-121462928D02*
X120996521Y-121491500D01*
X167596521Y-121377214D02*
X167625093Y-121348642D01*
X167625093Y-121348642D02*
X167682236Y-121320071D01*
X167682236Y-121320071D02*
X167825093Y-121320071D01*
X167825093Y-121320071D02*
X167882236Y-121348642D01*
X167882236Y-121348642D02*
X167910807Y-121377214D01*
X167910807Y-121377214D02*
X167939378Y-121434357D01*
X167939378Y-121434357D02*
X167939378Y-121491500D01*
X167939378Y-121491500D02*
X167910807Y-121577214D01*
X167910807Y-121577214D02*
X167567950Y-121920071D01*
X167567950Y-121920071D02*
X167939378Y-121920071D01*
D13*
X163233333Y-101254819D02*
X162900000Y-100778628D01*
X162661905Y-101254819D02*
X162661905Y-100254819D01*
X162661905Y-100254819D02*
X163042857Y-100254819D01*
X163042857Y-100254819D02*
X163138095Y-100302438D01*
X163138095Y-100302438D02*
X163185714Y-100350057D01*
X163185714Y-100350057D02*
X163233333Y-100445295D01*
X163233333Y-100445295D02*
X163233333Y-100588152D01*
X163233333Y-100588152D02*
X163185714Y-100683390D01*
X163185714Y-100683390D02*
X163138095Y-100731009D01*
X163138095Y-100731009D02*
X163042857Y-100778628D01*
X163042857Y-100778628D02*
X162661905Y-100778628D01*
X163614286Y-100350057D02*
X163661905Y-100302438D01*
X163661905Y-100302438D02*
X163757143Y-100254819D01*
X163757143Y-100254819D02*
X163995238Y-100254819D01*
X163995238Y-100254819D02*
X164090476Y-100302438D01*
X164090476Y-100302438D02*
X164138095Y-100350057D01*
X164138095Y-100350057D02*
X164185714Y-100445295D01*
X164185714Y-100445295D02*
X164185714Y-100540533D01*
X164185714Y-100540533D02*
X164138095Y-100683390D01*
X164138095Y-100683390D02*
X163566667Y-101254819D01*
X163566667Y-101254819D02*
X164185714Y-101254819D01*
X147658095Y-94954819D02*
X147658095Y-95764342D01*
X147658095Y-95764342D02*
X147705714Y-95859580D01*
X147705714Y-95859580D02*
X147753333Y-95907200D01*
X147753333Y-95907200D02*
X147848571Y-95954819D01*
X147848571Y-95954819D02*
X148039047Y-95954819D01*
X148039047Y-95954819D02*
X148134285Y-95907200D01*
X148134285Y-95907200D02*
X148181904Y-95859580D01*
X148181904Y-95859580D02*
X148229523Y-95764342D01*
X148229523Y-95764342D02*
X148229523Y-94954819D01*
X149229523Y-95954819D02*
X148658095Y-95954819D01*
X148943809Y-95954819D02*
X148943809Y-94954819D01*
X148943809Y-94954819D02*
X148848571Y-95097676D01*
X148848571Y-95097676D02*
X148753333Y-95192914D01*
X148753333Y-95192914D02*
X148658095Y-95240533D01*
D10*
X143916666Y-120057419D02*
X143916666Y-120771704D01*
X143916666Y-120771704D02*
X143869047Y-120914561D01*
X143869047Y-120914561D02*
X143773809Y-121009800D01*
X143773809Y-121009800D02*
X143630952Y-121057419D01*
X143630952Y-121057419D02*
X143535714Y-121057419D01*
X144916666Y-121057419D02*
X144345238Y-121057419D01*
X144630952Y-121057419D02*
X144630952Y-120057419D01*
X144630952Y-120057419D02*
X144535714Y-120200276D01*
X144535714Y-120200276D02*
X144440476Y-120295514D01*
X144440476Y-120295514D02*
X144345238Y-120343133D01*
D13*
X157233333Y-91054819D02*
X156900000Y-90578628D01*
X156661905Y-91054819D02*
X156661905Y-90054819D01*
X156661905Y-90054819D02*
X157042857Y-90054819D01*
X157042857Y-90054819D02*
X157138095Y-90102438D01*
X157138095Y-90102438D02*
X157185714Y-90150057D01*
X157185714Y-90150057D02*
X157233333Y-90245295D01*
X157233333Y-90245295D02*
X157233333Y-90388152D01*
X157233333Y-90388152D02*
X157185714Y-90483390D01*
X157185714Y-90483390D02*
X157138095Y-90531009D01*
X157138095Y-90531009D02*
X157042857Y-90578628D01*
X157042857Y-90578628D02*
X156661905Y-90578628D01*
X158185714Y-91054819D02*
X157614286Y-91054819D01*
X157900000Y-91054819D02*
X157900000Y-90054819D01*
X157900000Y-90054819D02*
X157804762Y-90197676D01*
X157804762Y-90197676D02*
X157709524Y-90292914D01*
X157709524Y-90292914D02*
X157614286Y-90340533D01*
X164195833Y-96789580D02*
X164148214Y-96837200D01*
X164148214Y-96837200D02*
X164005357Y-96884819D01*
X164005357Y-96884819D02*
X163910119Y-96884819D01*
X163910119Y-96884819D02*
X163767262Y-96837200D01*
X163767262Y-96837200D02*
X163672024Y-96741961D01*
X163672024Y-96741961D02*
X163624405Y-96646723D01*
X163624405Y-96646723D02*
X163576786Y-96456247D01*
X163576786Y-96456247D02*
X163576786Y-96313390D01*
X163576786Y-96313390D02*
X163624405Y-96122914D01*
X163624405Y-96122914D02*
X163672024Y-96027676D01*
X163672024Y-96027676D02*
X163767262Y-95932438D01*
X163767262Y-95932438D02*
X163910119Y-95884819D01*
X163910119Y-95884819D02*
X164005357Y-95884819D01*
X164005357Y-95884819D02*
X164148214Y-95932438D01*
X164148214Y-95932438D02*
X164195833Y-95980057D01*
X165148214Y-96884819D02*
X164576786Y-96884819D01*
X164862500Y-96884819D02*
X164862500Y-95884819D01*
X164862500Y-95884819D02*
X164767262Y-96027676D01*
X164767262Y-96027676D02*
X164672024Y-96122914D01*
X164672024Y-96122914D02*
X164576786Y-96170533D01*
D14*
%TO.C,R2*%
X162977500Y-103105276D02*
X162977500Y-103614724D01*
X164022500Y-103105276D02*
X164022500Y-103614724D01*
%TO.C,U1*%
X148945000Y-97077218D02*
X148945000Y-97360000D01*
X150117218Y-95905000D02*
X148945000Y-97077218D01*
X150400000Y-95905000D02*
X150117218Y-95905000D01*
X160595000Y-110095000D02*
X160595000Y-108640000D01*
X159140000Y-110095000D02*
X160595000Y-110095000D01*
X148945000Y-110095000D02*
X148945000Y-108640000D01*
X150400000Y-110095000D02*
X148945000Y-110095000D01*
X160595000Y-95905000D02*
X160595000Y-97360000D01*
X159140000Y-95905000D02*
X160595000Y-95905000D01*
%TO.C,R1*%
X157842500Y-92745276D02*
X157842500Y-93254724D01*
X156797500Y-92745276D02*
X156797500Y-93254724D01*
%TO.C,C1*%
X164508767Y-95510000D02*
X164216233Y-95510000D01*
X164508767Y-94490000D02*
X164216233Y-94490000D01*
%TD*%
M02*
