%TF.GenerationSoftware,KiCad,Pcbnew,9.0.0*%
%TF.CreationDate,2025-05-20T18:18:11-06:00*%
%TF.ProjectId,GB_Card32k,47425f43-6172-4643-9332-6b2e6b696361,rev?*%
%TF.SameCoordinates,Original*%
%TF.FileFunction,Copper,L2,Bot*%
%TF.FilePolarity,Positive*%
%FSLAX46Y46*%
G04 Gerber Fmt 4.6, Leading zero omitted, Abs format (unit mm)*
G04 Created by KiCad (PCBNEW 9.0.0) date 2025-05-20 18:18:11*
%MOMM*%
%LPD*%
G01*
G04 APERTURE LIST*
%TA.AperFunction,ViaPad*%
%ADD10C,0.600000*%
%TD*%
%TA.AperFunction,Conductor*%
%ADD11C,0.250000*%
%TD*%
G04 APERTURE END LIST*
D10*
%TO.N,GND*%
X167750000Y-118500000D03*
X167750000Y-120500000D03*
%TO.N,WR*%
X156150000Y-93750000D03*
X153000000Y-93600000D03*
%TO.N,GND*%
X153750000Y-88500000D03*
X135750000Y-88500000D03*
X129000000Y-90250000D03*
X124500000Y-94250000D03*
X167750000Y-103750000D03*
X167750000Y-105750000D03*
X167750000Y-107750000D03*
X161250000Y-96500000D03*
X160000000Y-94000000D03*
X159250000Y-94000000D03*
X158500000Y-94000000D03*
X160000000Y-94750000D03*
X159250000Y-94750000D03*
X158500000Y-94750000D03*
X167500000Y-96000000D03*
X167500000Y-95000000D03*
X167500000Y-94000000D03*
X166500000Y-96000000D03*
X166500000Y-94000000D03*
X166500000Y-95000000D03*
X166250000Y-121000000D03*
X164750000Y-121000000D03*
X167750000Y-119500000D03*
X168500000Y-87000000D03*
X120500000Y-98000000D03*
X120750000Y-87250000D03*
X135500000Y-95750000D03*
X129800000Y-101800000D03*
X128000000Y-103500000D03*
X123750000Y-107500000D03*
X123000000Y-113000000D03*
X123000000Y-119750000D03*
X134500000Y-106750000D03*
X130500000Y-112500000D03*
X125750000Y-116000000D03*
X125750000Y-111000000D03*
X130500000Y-106250000D03*
X134500000Y-102250000D03*
X144000000Y-95000000D03*
X144000000Y-96750000D03*
X146000000Y-96750000D03*
X142000000Y-96750000D03*
X142000000Y-95000000D03*
X146000000Y-95000000D03*
X154400000Y-94750000D03*
X153500000Y-94750000D03*
X154750000Y-98250000D03*
X153500000Y-98250000D03*
X154750000Y-97500000D03*
X153500000Y-97500000D03*
X154750000Y-104250000D03*
X153750000Y-103500000D03*
X153750000Y-116250000D03*
X153750000Y-117500000D03*
X154250000Y-107500000D03*
X153500000Y-107500000D03*
X152750000Y-107500000D03*
X154250000Y-108250000D03*
X152750000Y-108250000D03*
X153500000Y-108250000D03*
%TO.N,A14*%
X150250000Y-115750000D03*
X156750000Y-98250000D03*
%TO.N,A13*%
X149000000Y-116000000D03*
X155750000Y-99500000D03*
%TO.N,A12*%
X147875000Y-115875000D03*
X151000000Y-107250000D03*
%TO.N,A9*%
X142000000Y-116750000D03*
X155000000Y-101500000D03*
%TO.N,A8*%
X140500000Y-116500000D03*
%TO.N,A0*%
X139000000Y-115500000D03*
%TO.N,A8*%
X154040000Y-100460000D03*
%TO.N,A11*%
X146500000Y-116875000D03*
X158000000Y-103000000D03*
%TO.N,RD*%
X158500000Y-104500000D03*
X126000000Y-119500000D03*
%TO.N,A10*%
X144000000Y-119000000D03*
X165500000Y-119000000D03*
%TO.N,A15*%
X151500000Y-121000000D03*
X164500000Y-119500000D03*
%TO.N,A7*%
X139500000Y-99500000D03*
%TO.N,A6*%
X138000000Y-102500000D03*
%TO.N,A5*%
X136500000Y-105500000D03*
%TO.N,A4*%
X135000000Y-108500000D03*
%TO.N,A3*%
X134000000Y-111000000D03*
%TO.N,A2*%
X132000000Y-113500000D03*
%TO.N,A1*%
X130500000Y-114500000D03*
%TO.N,A0*%
X129000000Y-115500000D03*
%TO.N,A7*%
X147500000Y-98000000D03*
%TO.N,A6*%
X146000000Y-99500000D03*
%TO.N,A5*%
X145000000Y-100500000D03*
%TO.N,A4*%
X143000000Y-102000000D03*
%TO.N,A3*%
X141500000Y-103500000D03*
%TO.N,A2*%
X139000000Y-107000000D03*
%TO.N,A1*%
X139000000Y-114500000D03*
%TO.N,GND*%
X161250000Y-95500000D03*
%TD*%
D11*
%TO.N,WR*%
X153000000Y-93600000D02*
X156000000Y-93600000D01*
X156000000Y-93600000D02*
X156150000Y-93750000D01*
%TO.N,A9*%
X155000000Y-101500000D02*
X150250000Y-101500000D01*
X150250000Y-101500000D02*
X144000000Y-107750000D01*
X144000000Y-107750000D02*
X143387810Y-107750000D01*
X143387810Y-107750000D02*
X143000000Y-108137810D01*
X143000000Y-108137810D02*
X140250000Y-110887810D01*
X140250000Y-110887810D02*
X140250000Y-115000000D01*
X140250000Y-115000000D02*
X142000000Y-116750000D01*
%TO.N,A8*%
X154040000Y-100460000D02*
X150040000Y-100460000D01*
X150040000Y-100460000D02*
X139750000Y-110750000D01*
X139750000Y-110750000D02*
X139750000Y-115750000D01*
X139750000Y-115750000D02*
X140500000Y-116500000D01*
%TO.N,RD*%
X158500000Y-104500000D02*
X158500000Y-110000000D01*
X158500000Y-110000000D02*
X150722322Y-117777678D01*
X150722322Y-117777678D02*
X127722322Y-117777678D01*
X127722322Y-117777678D02*
X126000000Y-119500000D01*
%TO.N,A11*%
X146500000Y-116875000D02*
X146625000Y-116750000D01*
X146625000Y-116750000D02*
X150750000Y-116750000D01*
X150750000Y-116750000D02*
X157500000Y-110000000D01*
X157500000Y-110000000D02*
X157500000Y-103500000D01*
X157500000Y-103500000D02*
X158000000Y-103000000D01*
%TO.N,A14*%
X156750000Y-109250000D02*
X150250000Y-115750000D01*
X156750000Y-98250000D02*
X156750000Y-109250000D01*
%TO.N,A13*%
X155750000Y-99500000D02*
X155750000Y-109000000D01*
X155750000Y-109000000D02*
X149000000Y-115750000D01*
X149000000Y-115750000D02*
X149000000Y-116000000D01*
%TO.N,A12*%
X147875000Y-115875000D02*
X151000000Y-112750000D01*
X151000000Y-112750000D02*
X151000000Y-107250000D01*
%TO.N,A10*%
X165500000Y-119000000D02*
X165000000Y-118500000D01*
X165000000Y-118500000D02*
X144500000Y-118500000D01*
X144500000Y-118500000D02*
X144000000Y-119000000D01*
%TO.N,A0*%
X139000000Y-115500000D02*
X129000000Y-115500000D01*
%TO.N,A3*%
X134000000Y-111000000D02*
X141500000Y-103500000D01*
%TO.N,A15*%
X153000000Y-119500000D02*
X151500000Y-121000000D01*
X164500000Y-119500000D02*
X153000000Y-119500000D01*
%TO.N,A7*%
X141000000Y-98000000D02*
X139500000Y-99500000D01*
X147500000Y-98000000D02*
X141000000Y-98000000D01*
%TO.N,A6*%
X141000000Y-99500000D02*
X138000000Y-102500000D01*
X146000000Y-99500000D02*
X141000000Y-99500000D01*
%TO.N,A5*%
X141500000Y-100500000D02*
X136500000Y-105500000D01*
X145000000Y-100500000D02*
X141500000Y-100500000D01*
%TO.N,A4*%
X141500000Y-102000000D02*
X135000000Y-108500000D01*
X143000000Y-102000000D02*
X141500000Y-102000000D01*
%TO.N,A2*%
X132500000Y-113500000D02*
X132000000Y-113500000D01*
X139000000Y-107000000D02*
X132500000Y-113500000D01*
%TO.N,A1*%
X139000000Y-114500000D02*
X130500000Y-114500000D01*
%TD*%
%TA.AperFunction,Conductor*%
%TO.N,GND*%
G36*
X154524689Y-102145185D02*
G01*
X154526541Y-102146398D01*
X154620821Y-102209394D01*
X154620823Y-102209395D01*
X154620827Y-102209397D01*
X154758683Y-102266498D01*
X154766503Y-102269737D01*
X154921153Y-102300499D01*
X154921156Y-102300500D01*
X155000500Y-102300500D01*
X155067539Y-102320185D01*
X155113294Y-102372989D01*
X155124500Y-102424500D01*
X155124500Y-108689547D01*
X155104815Y-108756586D01*
X155088181Y-108777228D01*
X151837181Y-112028228D01*
X151775858Y-112061713D01*
X151706166Y-112056729D01*
X151650233Y-112014857D01*
X151625816Y-111949393D01*
X151625500Y-111940547D01*
X151625500Y-107792350D01*
X151645185Y-107725311D01*
X151646398Y-107723459D01*
X151656633Y-107708141D01*
X151709394Y-107629179D01*
X151769737Y-107483497D01*
X151800500Y-107328842D01*
X151800500Y-107171158D01*
X151800500Y-107171155D01*
X151800499Y-107171153D01*
X151769738Y-107016510D01*
X151769737Y-107016503D01*
X151730242Y-106921153D01*
X151709397Y-106870827D01*
X151709390Y-106870814D01*
X151621789Y-106739711D01*
X151621786Y-106739707D01*
X151510292Y-106628213D01*
X151510288Y-106628210D01*
X151379185Y-106540609D01*
X151379172Y-106540602D01*
X151233501Y-106480264D01*
X151233489Y-106480261D01*
X151078845Y-106449500D01*
X151078842Y-106449500D01*
X150921158Y-106449500D01*
X150921155Y-106449500D01*
X150766510Y-106480261D01*
X150766498Y-106480264D01*
X150620827Y-106540602D01*
X150620814Y-106540609D01*
X150489711Y-106628210D01*
X150489707Y-106628213D01*
X150378213Y-106739707D01*
X150378210Y-106739711D01*
X150290609Y-106870814D01*
X150290602Y-106870827D01*
X150230264Y-107016498D01*
X150230261Y-107016510D01*
X150199500Y-107171153D01*
X150199500Y-107328846D01*
X150230261Y-107483489D01*
X150230264Y-107483501D01*
X150290602Y-107629172D01*
X150290609Y-107629184D01*
X150353602Y-107723459D01*
X150374480Y-107790136D01*
X150374500Y-107792350D01*
X150374500Y-112439547D01*
X150354815Y-112506586D01*
X150338181Y-112527228D01*
X148514609Y-114350799D01*
X148453286Y-114384284D01*
X148383594Y-114379300D01*
X148327661Y-114337428D01*
X148303244Y-114271964D01*
X148308266Y-114227128D01*
X148385290Y-113973215D01*
X148385292Y-113973205D01*
X148385295Y-113973194D01*
X148461973Y-113587702D01*
X148500500Y-113196532D01*
X148500500Y-112803468D01*
X148461973Y-112412297D01*
X148427683Y-112239909D01*
X148385295Y-112026805D01*
X148385292Y-112026794D01*
X148385291Y-112026791D01*
X148385290Y-112026785D01*
X148271190Y-111650647D01*
X148120771Y-111287503D01*
X148108355Y-111264275D01*
X147935488Y-110940862D01*
X147935487Y-110940860D01*
X147935482Y-110940851D01*
X147717107Y-110614031D01*
X147467750Y-110310188D01*
X147467749Y-110310187D01*
X147467745Y-110310182D01*
X147189817Y-110032254D01*
X146885974Y-109782897D01*
X146885973Y-109782896D01*
X146885969Y-109782893D01*
X146559149Y-109564518D01*
X146559144Y-109564515D01*
X146559137Y-109564511D01*
X146212504Y-109379232D01*
X146212499Y-109379230D01*
X145849354Y-109228810D01*
X145473205Y-109114707D01*
X145473194Y-109114704D01*
X145087702Y-109038026D01*
X144793089Y-109009010D01*
X144696532Y-108999500D01*
X144303468Y-108999500D01*
X144214251Y-109008287D01*
X143912297Y-109038026D01*
X143526805Y-109114704D01*
X143526794Y-109114707D01*
X143381337Y-109158831D01*
X143150647Y-109228810D01*
X143150645Y-109228810D01*
X143150641Y-109228812D01*
X143117047Y-109242727D01*
X143047577Y-109250196D01*
X142985098Y-109218920D01*
X142949447Y-109158831D01*
X142951941Y-109089006D01*
X142981913Y-109040486D01*
X143485857Y-108536543D01*
X143610581Y-108411819D01*
X143671904Y-108378334D01*
X143698262Y-108375500D01*
X144061607Y-108375500D01*
X144122029Y-108363481D01*
X144182452Y-108351463D01*
X144215792Y-108337652D01*
X144296286Y-108304312D01*
X144347509Y-108270084D01*
X144352869Y-108266503D01*
X144360271Y-108261556D01*
X144398733Y-108235858D01*
X144485858Y-108148733D01*
X144485859Y-108148731D01*
X144492925Y-108141665D01*
X144492927Y-108141661D01*
X150472771Y-102161819D01*
X150534094Y-102128334D01*
X150560452Y-102125500D01*
X154457650Y-102125500D01*
X154524689Y-102145185D01*
G37*
%TD.AperFunction*%
%TA.AperFunction,Conductor*%
G36*
X168942539Y-86520185D02*
G01*
X168988294Y-86572989D01*
X168999500Y-86624500D01*
X168999500Y-120562094D01*
X168979815Y-120629133D01*
X168937501Y-120669481D01*
X168923945Y-120677307D01*
X168923944Y-120677308D01*
X168789836Y-120789836D01*
X168677309Y-120923942D01*
X168589775Y-121075553D01*
X168529898Y-121240062D01*
X168499500Y-121412465D01*
X168499500Y-128375500D01*
X168479815Y-128442539D01*
X168427011Y-128488294D01*
X168375500Y-128499500D01*
X120624500Y-128499500D01*
X120557461Y-128479815D01*
X120511706Y-128427011D01*
X120500500Y-128375500D01*
X120500500Y-121412472D01*
X120500500Y-121412468D01*
X120470101Y-121240062D01*
X120410225Y-121075555D01*
X120322692Y-120923945D01*
X120322691Y-120923943D01*
X120322690Y-120923942D01*
X120210163Y-120789836D01*
X120076055Y-120677308D01*
X120076054Y-120677307D01*
X120062499Y-120669481D01*
X120014284Y-120618913D01*
X120000500Y-120562094D01*
X120000500Y-119421153D01*
X125199500Y-119421153D01*
X125199500Y-119578846D01*
X125230261Y-119733489D01*
X125230264Y-119733501D01*
X125290602Y-119879172D01*
X125290609Y-119879185D01*
X125378210Y-120010288D01*
X125378213Y-120010292D01*
X125489707Y-120121786D01*
X125489711Y-120121789D01*
X125620814Y-120209390D01*
X125620827Y-120209397D01*
X125766498Y-120269735D01*
X125766503Y-120269737D01*
X125921153Y-120300499D01*
X125921156Y-120300500D01*
X125921158Y-120300500D01*
X126078844Y-120300500D01*
X126078845Y-120300499D01*
X126233497Y-120269737D01*
X126379179Y-120209394D01*
X126510289Y-120121789D01*
X126621789Y-120010289D01*
X126709394Y-119879179D01*
X126769737Y-119733497D01*
X126791858Y-119622282D01*
X126824240Y-119560375D01*
X126825734Y-119558854D01*
X127945093Y-118439497D01*
X128006416Y-118406012D01*
X128032774Y-118403178D01*
X143204042Y-118403178D01*
X143271081Y-118422863D01*
X143316836Y-118475667D01*
X143326780Y-118544825D01*
X143307144Y-118596069D01*
X143290609Y-118620814D01*
X143290602Y-118620827D01*
X143230264Y-118766498D01*
X143230261Y-118766510D01*
X143199500Y-118921153D01*
X143199500Y-119078846D01*
X143230261Y-119233489D01*
X143230264Y-119233501D01*
X143290602Y-119379172D01*
X143290609Y-119379185D01*
X143378210Y-119510288D01*
X143378213Y-119510292D01*
X143489707Y-119621786D01*
X143489711Y-119621789D01*
X143620814Y-119709390D01*
X143620827Y-119709397D01*
X143756450Y-119765573D01*
X143766503Y-119769737D01*
X143921153Y-119800499D01*
X143921156Y-119800500D01*
X143921158Y-119800500D01*
X144078844Y-119800500D01*
X144078845Y-119800499D01*
X144233497Y-119769737D01*
X144379179Y-119709394D01*
X144510289Y-119621789D01*
X144621789Y-119510289D01*
X144709394Y-119379179D01*
X144769737Y-119233497D01*
X144771365Y-119225308D01*
X144803750Y-119163399D01*
X144864465Y-119128824D01*
X144892983Y-119125500D01*
X152190547Y-119125500D01*
X152257586Y-119145185D01*
X152303341Y-119197989D01*
X152313285Y-119267147D01*
X152284260Y-119330703D01*
X152278228Y-119337181D01*
X151441203Y-120174205D01*
X151379880Y-120207690D01*
X151377714Y-120208141D01*
X151266508Y-120230261D01*
X151266498Y-120230264D01*
X151120827Y-120290602D01*
X151120814Y-120290609D01*
X150989711Y-120378210D01*
X150989707Y-120378213D01*
X150878213Y-120489707D01*
X150878210Y-120489711D01*
X150790609Y-120620814D01*
X150790602Y-120620827D01*
X150730264Y-120766498D01*
X150730261Y-120766510D01*
X150699500Y-120921153D01*
X150699500Y-121078846D01*
X150730261Y-121233489D01*
X150730264Y-121233501D01*
X150790602Y-121379172D01*
X150790609Y-121379185D01*
X150878210Y-121510288D01*
X150878213Y-121510292D01*
X150989707Y-121621786D01*
X150989711Y-121621789D01*
X151120814Y-121709390D01*
X151120827Y-121709397D01*
X151266498Y-121769735D01*
X151266503Y-121769737D01*
X151421153Y-121800499D01*
X151421156Y-121800500D01*
X151421158Y-121800500D01*
X151578844Y-121800500D01*
X151578845Y-121800499D01*
X151733497Y-121769737D01*
X151879179Y-121709394D01*
X152010289Y-121621789D01*
X152121789Y-121510289D01*
X152209394Y-121379179D01*
X152269737Y-121233497D01*
X152291858Y-121122282D01*
X152324240Y-121060375D01*
X152325732Y-121058856D01*
X153222772Y-120161819D01*
X153284095Y-120128334D01*
X153310453Y-120125500D01*
X163957650Y-120125500D01*
X164024689Y-120145185D01*
X164026541Y-120146398D01*
X164120821Y-120209394D01*
X164120823Y-120209395D01*
X164120827Y-120209397D01*
X164266498Y-120269735D01*
X164266503Y-120269737D01*
X164421153Y-120300499D01*
X164421156Y-120300500D01*
X164421158Y-120300500D01*
X164578844Y-120300500D01*
X164578845Y-120300499D01*
X164733497Y-120269737D01*
X164879179Y-120209394D01*
X165010289Y-120121789D01*
X165121789Y-120010289D01*
X165209394Y-119879179D01*
X165216677Y-119861593D01*
X165260514Y-119807190D01*
X165326807Y-119785122D01*
X165355431Y-119787426D01*
X165421155Y-119800500D01*
X165421158Y-119800500D01*
X165578844Y-119800500D01*
X165578845Y-119800499D01*
X165733497Y-119769737D01*
X165879179Y-119709394D01*
X166010289Y-119621789D01*
X166121789Y-119510289D01*
X166209394Y-119379179D01*
X166269737Y-119233497D01*
X166300500Y-119078842D01*
X166300500Y-118921158D01*
X166300500Y-118921155D01*
X166300499Y-118921153D01*
X166274531Y-118790606D01*
X166269737Y-118766503D01*
X166269735Y-118766498D01*
X166209397Y-118620827D01*
X166209390Y-118620814D01*
X166121789Y-118489711D01*
X166121786Y-118489707D01*
X166010292Y-118378213D01*
X166010288Y-118378210D01*
X165879185Y-118290609D01*
X165879172Y-118290602D01*
X165733501Y-118230264D01*
X165733489Y-118230261D01*
X165622285Y-118208141D01*
X165605528Y-118199376D01*
X165587049Y-118195356D01*
X165562010Y-118176611D01*
X165560374Y-118175756D01*
X165558795Y-118174205D01*
X165490198Y-118105608D01*
X165490178Y-118105586D01*
X165398733Y-118014141D01*
X165353325Y-117983801D01*
X165353324Y-117983800D01*
X165347509Y-117979915D01*
X165296286Y-117945688D01*
X165215792Y-117912347D01*
X165200457Y-117905995D01*
X165182453Y-117898537D01*
X165172427Y-117896543D01*
X165122029Y-117886518D01*
X165061610Y-117874500D01*
X165061607Y-117874500D01*
X165061606Y-117874500D01*
X151809452Y-117874500D01*
X151742413Y-117854815D01*
X151696658Y-117802011D01*
X151686714Y-117732853D01*
X151715739Y-117669297D01*
X151721771Y-117662819D01*
X155263764Y-114120827D01*
X158985858Y-110398733D01*
X159054312Y-110296285D01*
X159101463Y-110182451D01*
X159125500Y-110061606D01*
X159125500Y-109938393D01*
X159125500Y-105042350D01*
X159145185Y-104975311D01*
X159146398Y-104973459D01*
X159146809Y-104972843D01*
X159209394Y-104879179D01*
X159269737Y-104733497D01*
X159300500Y-104578842D01*
X159300500Y-104421158D01*
X159300500Y-104421155D01*
X159300499Y-104421153D01*
X159269737Y-104266503D01*
X159209794Y-104121786D01*
X159209397Y-104120827D01*
X159209390Y-104120814D01*
X159121789Y-103989711D01*
X159121786Y-103989707D01*
X159010292Y-103878213D01*
X159010288Y-103878210D01*
X158879185Y-103790609D01*
X158879172Y-103790602D01*
X158733501Y-103730264D01*
X158733491Y-103730261D01*
X158684374Y-103720491D01*
X158622463Y-103688106D01*
X158587889Y-103627389D01*
X158591630Y-103557620D01*
X158618296Y-103515304D01*
X158617924Y-103514999D01*
X158620357Y-103512033D01*
X158620891Y-103511186D01*
X158621789Y-103510289D01*
X158709394Y-103379179D01*
X158769737Y-103233497D01*
X158800500Y-103078842D01*
X158800500Y-102921158D01*
X158800500Y-102921155D01*
X158800499Y-102921153D01*
X158769738Y-102766510D01*
X158769737Y-102766503D01*
X158754726Y-102730263D01*
X158709397Y-102620827D01*
X158709390Y-102620814D01*
X158621789Y-102489711D01*
X158621786Y-102489707D01*
X158510292Y-102378213D01*
X158510288Y-102378210D01*
X158379185Y-102290609D01*
X158379172Y-102290602D01*
X158233501Y-102230264D01*
X158233489Y-102230261D01*
X158078845Y-102199500D01*
X158078842Y-102199500D01*
X157921158Y-102199500D01*
X157921155Y-102199500D01*
X157766510Y-102230261D01*
X157766498Y-102230264D01*
X157620827Y-102290602D01*
X157620814Y-102290609D01*
X157568391Y-102325638D01*
X157501713Y-102346516D01*
X157434333Y-102328031D01*
X157387643Y-102276053D01*
X157375500Y-102222536D01*
X157375500Y-98792350D01*
X157395185Y-98725311D01*
X157396398Y-98723459D01*
X157406633Y-98708141D01*
X157459394Y-98629179D01*
X157519737Y-98483497D01*
X157550500Y-98328842D01*
X157550500Y-98171158D01*
X157550500Y-98171155D01*
X157550499Y-98171153D01*
X157519738Y-98016510D01*
X157519737Y-98016503D01*
X157480242Y-97921153D01*
X157459397Y-97870827D01*
X157459390Y-97870814D01*
X157371789Y-97739711D01*
X157371786Y-97739707D01*
X157260292Y-97628213D01*
X157260288Y-97628210D01*
X157129185Y-97540609D01*
X157129172Y-97540602D01*
X156983501Y-97480264D01*
X156983489Y-97480261D01*
X156828845Y-97449500D01*
X156828842Y-97449500D01*
X156671158Y-97449500D01*
X156671155Y-97449500D01*
X156516510Y-97480261D01*
X156516498Y-97480264D01*
X156370827Y-97540602D01*
X156370814Y-97540609D01*
X156239711Y-97628210D01*
X156239707Y-97628213D01*
X156128213Y-97739707D01*
X156128210Y-97739711D01*
X156040609Y-97870814D01*
X156040602Y-97870827D01*
X155980264Y-98016498D01*
X155980261Y-98016510D01*
X155949500Y-98171153D01*
X155949500Y-98328846D01*
X155980261Y-98483489D01*
X155980263Y-98483496D01*
X156002586Y-98537391D01*
X156010053Y-98606860D01*
X155978778Y-98669339D01*
X155918688Y-98704991D01*
X155863834Y-98706460D01*
X155828842Y-98699500D01*
X155671158Y-98699500D01*
X155671155Y-98699500D01*
X155516510Y-98730261D01*
X155516498Y-98730264D01*
X155370827Y-98790602D01*
X155370814Y-98790609D01*
X155239711Y-98878210D01*
X155239707Y-98878213D01*
X155128213Y-98989707D01*
X155128210Y-98989711D01*
X155040609Y-99120814D01*
X155040602Y-99120827D01*
X154980264Y-99266498D01*
X154980261Y-99266510D01*
X154949500Y-99421153D01*
X154949500Y-99578846D01*
X154980261Y-99733489D01*
X154980264Y-99733501D01*
X155040602Y-99879172D01*
X155040609Y-99879184D01*
X155103602Y-99973459D01*
X155124480Y-100040136D01*
X155124500Y-100042350D01*
X155124500Y-100575500D01*
X155104815Y-100642539D01*
X155052011Y-100688294D01*
X155000500Y-100699500D01*
X154959638Y-100699500D01*
X154892599Y-100679815D01*
X154846844Y-100627011D01*
X154836900Y-100557853D01*
X154838020Y-100551310D01*
X154840500Y-100538841D01*
X154840500Y-100381155D01*
X154840499Y-100381153D01*
X154824456Y-100300499D01*
X154809737Y-100226503D01*
X154802649Y-100209390D01*
X154749397Y-100080827D01*
X154749390Y-100080814D01*
X154661789Y-99949711D01*
X154661786Y-99949707D01*
X154550292Y-99838213D01*
X154550288Y-99838210D01*
X154419185Y-99750609D01*
X154419172Y-99750602D01*
X154273501Y-99690264D01*
X154273489Y-99690261D01*
X154118845Y-99659500D01*
X154118842Y-99659500D01*
X153961158Y-99659500D01*
X153961155Y-99659500D01*
X153806510Y-99690261D01*
X153806498Y-99690264D01*
X153660827Y-99750602D01*
X153660815Y-99750609D01*
X153566541Y-99813602D01*
X153499864Y-99834480D01*
X153497650Y-99834500D01*
X150107741Y-99834500D01*
X150107721Y-99834499D01*
X150101607Y-99834499D01*
X149978394Y-99834499D01*
X149877597Y-99854548D01*
X149877592Y-99854548D01*
X149857548Y-99858536D01*
X149857545Y-99858537D01*
X149819015Y-99874498D01*
X149819012Y-99874499D01*
X149743714Y-99905688D01*
X149743712Y-99905689D01*
X149641267Y-99974141D01*
X149641263Y-99974144D01*
X141914606Y-107700803D01*
X139351269Y-110264140D01*
X139351267Y-110264142D01*
X139324807Y-110290602D01*
X139264143Y-110351265D01*
X139264142Y-110351267D01*
X139248619Y-110374499D01*
X139195688Y-110453714D01*
X139195684Y-110453720D01*
X139162347Y-110534207D01*
X139156823Y-110547543D01*
X139148537Y-110567545D01*
X139148535Y-110567553D01*
X139124500Y-110688389D01*
X139124500Y-113575500D01*
X139104815Y-113642539D01*
X139052011Y-113688294D01*
X139000500Y-113699500D01*
X138921155Y-113699500D01*
X138766510Y-113730261D01*
X138766498Y-113730264D01*
X138620827Y-113790602D01*
X138620815Y-113790609D01*
X138526541Y-113853602D01*
X138459864Y-113874480D01*
X138457650Y-113874500D01*
X133309452Y-113874500D01*
X133242413Y-113854815D01*
X133196658Y-113802011D01*
X133186714Y-113732853D01*
X133215739Y-113669297D01*
X133221771Y-113662819D01*
X134644681Y-112239909D01*
X139058797Y-107825791D01*
X139120118Y-107792308D01*
X139122128Y-107791889D01*
X139233497Y-107769737D01*
X139379179Y-107709394D01*
X139510289Y-107621789D01*
X139621789Y-107510289D01*
X139709394Y-107379179D01*
X139769737Y-107233497D01*
X139800500Y-107078842D01*
X139800500Y-106921158D01*
X139800500Y-106921155D01*
X139800499Y-106921153D01*
X139769738Y-106766510D01*
X139769737Y-106766503D01*
X139769735Y-106766498D01*
X139709397Y-106620827D01*
X139709390Y-106620814D01*
X139621789Y-106489711D01*
X139621786Y-106489707D01*
X139596015Y-106463936D01*
X139562530Y-106402613D01*
X139567514Y-106332921D01*
X139596013Y-106288576D01*
X141558798Y-104325791D01*
X141620119Y-104292308D01*
X141622114Y-104291892D01*
X141733497Y-104269737D01*
X141879179Y-104209394D01*
X142010289Y-104121789D01*
X142121789Y-104010289D01*
X142209394Y-103879179D01*
X142269737Y-103733497D01*
X142300500Y-103578842D01*
X142300500Y-103421158D01*
X142300500Y-103421155D01*
X142300499Y-103421153D01*
X142269738Y-103266510D01*
X142269737Y-103266503D01*
X142256062Y-103233489D01*
X142209397Y-103120827D01*
X142209390Y-103120814D01*
X142121789Y-102989711D01*
X142121786Y-102989707D01*
X142010292Y-102878213D01*
X142010288Y-102878210D01*
X141971963Y-102852602D01*
X141927158Y-102798990D01*
X141918451Y-102729665D01*
X141948605Y-102666637D01*
X142008048Y-102629918D01*
X142040854Y-102625500D01*
X142457650Y-102625500D01*
X142524689Y-102645185D01*
X142526541Y-102646398D01*
X142620821Y-102709394D01*
X142620823Y-102709395D01*
X142620827Y-102709397D01*
X142758683Y-102766498D01*
X142766503Y-102769737D01*
X142871418Y-102790606D01*
X142921153Y-102800499D01*
X142921156Y-102800500D01*
X142921158Y-102800500D01*
X143078844Y-102800500D01*
X143078845Y-102800499D01*
X143233497Y-102769737D01*
X143379179Y-102709394D01*
X143510289Y-102621789D01*
X143621789Y-102510289D01*
X143709394Y-102379179D01*
X143769737Y-102233497D01*
X143800500Y-102078842D01*
X143800500Y-101921158D01*
X143800500Y-101921155D01*
X143800499Y-101921153D01*
X143774531Y-101790606D01*
X143769737Y-101766503D01*
X143769735Y-101766498D01*
X143709397Y-101620827D01*
X143709390Y-101620814D01*
X143621789Y-101489711D01*
X143621786Y-101489707D01*
X143510292Y-101378213D01*
X143510288Y-101378210D01*
X143471963Y-101352602D01*
X143427158Y-101298990D01*
X143418451Y-101229665D01*
X143448605Y-101166637D01*
X143508048Y-101129918D01*
X143540854Y-101125500D01*
X144457650Y-101125500D01*
X144524689Y-101145185D01*
X144526541Y-101146398D01*
X144620821Y-101209394D01*
X144620823Y-101209395D01*
X144620827Y-101209397D01*
X144760250Y-101267147D01*
X144766503Y-101269737D01*
X144871418Y-101290606D01*
X144921153Y-101300499D01*
X144921156Y-101300500D01*
X144921158Y-101300500D01*
X145078844Y-101300500D01*
X145078845Y-101300499D01*
X145233497Y-101269737D01*
X145379179Y-101209394D01*
X145510289Y-101121789D01*
X145621789Y-101010289D01*
X145709394Y-100879179D01*
X145769737Y-100733497D01*
X145800500Y-100578842D01*
X145800500Y-100424500D01*
X145820185Y-100357461D01*
X145872989Y-100311706D01*
X145924500Y-100300500D01*
X146078844Y-100300500D01*
X146078845Y-100300499D01*
X146233497Y-100269737D01*
X146379179Y-100209394D01*
X146510289Y-100121789D01*
X146621789Y-100010289D01*
X146709394Y-99879179D01*
X146769737Y-99733497D01*
X146800500Y-99578842D01*
X146800500Y-99421158D01*
X146800500Y-99421155D01*
X146800499Y-99421153D01*
X146769738Y-99266510D01*
X146769737Y-99266503D01*
X146769735Y-99266498D01*
X146709397Y-99120827D01*
X146709390Y-99120814D01*
X146621789Y-98989711D01*
X146621786Y-98989707D01*
X146510292Y-98878213D01*
X146510288Y-98878210D01*
X146471963Y-98852602D01*
X146427158Y-98798990D01*
X146418451Y-98729665D01*
X146448605Y-98666637D01*
X146508048Y-98629918D01*
X146540854Y-98625500D01*
X146957650Y-98625500D01*
X147024689Y-98645185D01*
X147026541Y-98646398D01*
X147120821Y-98709394D01*
X147120823Y-98709395D01*
X147120827Y-98709397D01*
X147260250Y-98767147D01*
X147266503Y-98769737D01*
X147413567Y-98798990D01*
X147421153Y-98800499D01*
X147421156Y-98800500D01*
X147421158Y-98800500D01*
X147578844Y-98800500D01*
X147578845Y-98800499D01*
X147733497Y-98769737D01*
X147879179Y-98709394D01*
X148010289Y-98621789D01*
X148121789Y-98510289D01*
X148209394Y-98379179D01*
X148269737Y-98233497D01*
X148300500Y-98078842D01*
X148300500Y-97921158D01*
X148300500Y-97921155D01*
X148300499Y-97921153D01*
X148269738Y-97766510D01*
X148269737Y-97766503D01*
X148269735Y-97766498D01*
X148209397Y-97620827D01*
X148209390Y-97620814D01*
X148121789Y-97489711D01*
X148121786Y-97489707D01*
X148010292Y-97378213D01*
X148010288Y-97378210D01*
X147879185Y-97290609D01*
X147879172Y-97290602D01*
X147733501Y-97230264D01*
X147733489Y-97230261D01*
X147578845Y-97199500D01*
X147578842Y-97199500D01*
X147421158Y-97199500D01*
X147421155Y-97199500D01*
X147266510Y-97230261D01*
X147266498Y-97230264D01*
X147120827Y-97290602D01*
X147120815Y-97290609D01*
X147026541Y-97353602D01*
X146959864Y-97374480D01*
X146957650Y-97374500D01*
X140938389Y-97374500D01*
X140877971Y-97386518D01*
X140834743Y-97395116D01*
X140817546Y-97398537D01*
X140703716Y-97445687D01*
X140651971Y-97480263D01*
X140651970Y-97480264D01*
X140601263Y-97514144D01*
X140601262Y-97514145D01*
X139441203Y-98674205D01*
X139379880Y-98707690D01*
X139377714Y-98708141D01*
X139266508Y-98730261D01*
X139266498Y-98730264D01*
X139120827Y-98790602D01*
X139120814Y-98790609D01*
X138989711Y-98878210D01*
X138989707Y-98878213D01*
X138878213Y-98989707D01*
X138878210Y-98989711D01*
X138790609Y-99120814D01*
X138790602Y-99120827D01*
X138730264Y-99266498D01*
X138730261Y-99266510D01*
X138699500Y-99421153D01*
X138699500Y-99578846D01*
X138730261Y-99733489D01*
X138730264Y-99733501D01*
X138790602Y-99879172D01*
X138790609Y-99879185D01*
X138878210Y-100010288D01*
X138878213Y-100010292D01*
X138989707Y-100121786D01*
X138989711Y-100121789D01*
X139120814Y-100209390D01*
X139120821Y-100209394D01*
X139151030Y-100221906D01*
X139205433Y-100265747D01*
X139227499Y-100332040D01*
X139210221Y-100399740D01*
X139191259Y-100424149D01*
X137941203Y-101674205D01*
X137879880Y-101707690D01*
X137877714Y-101708141D01*
X137766508Y-101730261D01*
X137766498Y-101730264D01*
X137620827Y-101790602D01*
X137620814Y-101790609D01*
X137489711Y-101878210D01*
X137489707Y-101878213D01*
X137378213Y-101989707D01*
X137378210Y-101989711D01*
X137290609Y-102120814D01*
X137290602Y-102120827D01*
X137230264Y-102266498D01*
X137230261Y-102266510D01*
X137199500Y-102421153D01*
X137199500Y-102578846D01*
X137230261Y-102733489D01*
X137230264Y-102733501D01*
X137290602Y-102879172D01*
X137290609Y-102879185D01*
X137378210Y-103010288D01*
X137378213Y-103010292D01*
X137489707Y-103121786D01*
X137489711Y-103121789D01*
X137620814Y-103209390D01*
X137620821Y-103209394D01*
X137651030Y-103221906D01*
X137705433Y-103265747D01*
X137727499Y-103332040D01*
X137710221Y-103399740D01*
X137691259Y-103424149D01*
X136441203Y-104674205D01*
X136379880Y-104707690D01*
X136377714Y-104708141D01*
X136266508Y-104730261D01*
X136266498Y-104730264D01*
X136120827Y-104790602D01*
X136120814Y-104790609D01*
X135989711Y-104878210D01*
X135989707Y-104878213D01*
X135878213Y-104989707D01*
X135878210Y-104989711D01*
X135790609Y-105120814D01*
X135790602Y-105120827D01*
X135730264Y-105266498D01*
X135730261Y-105266510D01*
X135699500Y-105421153D01*
X135699500Y-105578846D01*
X135730261Y-105733489D01*
X135730264Y-105733501D01*
X135790602Y-105879172D01*
X135790609Y-105879185D01*
X135878210Y-106010288D01*
X135878213Y-106010292D01*
X135989707Y-106121786D01*
X135989711Y-106121789D01*
X136120814Y-106209390D01*
X136120821Y-106209394D01*
X136151030Y-106221906D01*
X136205433Y-106265747D01*
X136227499Y-106332040D01*
X136210221Y-106399740D01*
X136191259Y-106424149D01*
X134941203Y-107674205D01*
X134879880Y-107707690D01*
X134877714Y-107708141D01*
X134766508Y-107730261D01*
X134766498Y-107730264D01*
X134620827Y-107790602D01*
X134620814Y-107790609D01*
X134489711Y-107878210D01*
X134489707Y-107878213D01*
X134378213Y-107989707D01*
X134378210Y-107989711D01*
X134290609Y-108120814D01*
X134290602Y-108120827D01*
X134230264Y-108266498D01*
X134230261Y-108266510D01*
X134199500Y-108421153D01*
X134199500Y-108578846D01*
X134230261Y-108733489D01*
X134230264Y-108733501D01*
X134290602Y-108879172D01*
X134290609Y-108879185D01*
X134378210Y-109010288D01*
X134378213Y-109010292D01*
X134489707Y-109121786D01*
X134489711Y-109121789D01*
X134620814Y-109209390D01*
X134620821Y-109209394D01*
X134651030Y-109221906D01*
X134705433Y-109265747D01*
X134727499Y-109332040D01*
X134710221Y-109399740D01*
X134691259Y-109424149D01*
X133941203Y-110174205D01*
X133879880Y-110207690D01*
X133877714Y-110208141D01*
X133766508Y-110230261D01*
X133766498Y-110230264D01*
X133620827Y-110290602D01*
X133620814Y-110290609D01*
X133489711Y-110378210D01*
X133489707Y-110378213D01*
X133378213Y-110489707D01*
X133378210Y-110489711D01*
X133290609Y-110620814D01*
X133290602Y-110620827D01*
X133230264Y-110766498D01*
X133230261Y-110766510D01*
X133199500Y-110921153D01*
X133199500Y-111078846D01*
X133230261Y-111233489D01*
X133230264Y-111233501D01*
X133290602Y-111379172D01*
X133290609Y-111379185D01*
X133378210Y-111510288D01*
X133378213Y-111510292D01*
X133403984Y-111536063D01*
X133437469Y-111597386D01*
X133432485Y-111667078D01*
X133403984Y-111711425D01*
X132399315Y-112716093D01*
X132337992Y-112749578D01*
X132268300Y-112744594D01*
X132264193Y-112742977D01*
X132233497Y-112730263D01*
X132233489Y-112730261D01*
X132078845Y-112699500D01*
X132078842Y-112699500D01*
X131921158Y-112699500D01*
X131921155Y-112699500D01*
X131766510Y-112730261D01*
X131766498Y-112730264D01*
X131620827Y-112790602D01*
X131620814Y-112790609D01*
X131489711Y-112878210D01*
X131489707Y-112878213D01*
X131378213Y-112989707D01*
X131378210Y-112989711D01*
X131290609Y-113120814D01*
X131290602Y-113120827D01*
X131230264Y-113266498D01*
X131230261Y-113266510D01*
X131199500Y-113421153D01*
X131199500Y-113421158D01*
X131199500Y-113578842D01*
X131199500Y-113578844D01*
X131199499Y-113578844D01*
X131228833Y-113726308D01*
X131226955Y-113747292D01*
X131229954Y-113768147D01*
X131223903Y-113781394D01*
X131222606Y-113795900D01*
X131209681Y-113812537D01*
X131200929Y-113831703D01*
X131188676Y-113839577D01*
X131179743Y-113851077D01*
X131159876Y-113858085D01*
X131142151Y-113869477D01*
X131117568Y-113873011D01*
X131113854Y-113874322D01*
X131107216Y-113874500D01*
X131042350Y-113874500D01*
X130975311Y-113854815D01*
X130973459Y-113853602D01*
X130879184Y-113790609D01*
X130879172Y-113790602D01*
X130733501Y-113730264D01*
X130733489Y-113730261D01*
X130578845Y-113699500D01*
X130578842Y-113699500D01*
X130421158Y-113699500D01*
X130421155Y-113699500D01*
X130266510Y-113730261D01*
X130266498Y-113730264D01*
X130120827Y-113790602D01*
X130120814Y-113790609D01*
X129989711Y-113878210D01*
X129989707Y-113878213D01*
X129878213Y-113989707D01*
X129878210Y-113989711D01*
X129790609Y-114120814D01*
X129790602Y-114120827D01*
X129730264Y-114266498D01*
X129730261Y-114266510D01*
X129699500Y-114421153D01*
X129699500Y-114421158D01*
X129699500Y-114578842D01*
X129699500Y-114578844D01*
X129699499Y-114578844D01*
X129728833Y-114726308D01*
X129726955Y-114747292D01*
X129729954Y-114768147D01*
X129723903Y-114781394D01*
X129722606Y-114795900D01*
X129709681Y-114812537D01*
X129700929Y-114831703D01*
X129688676Y-114839577D01*
X129679743Y-114851077D01*
X129659876Y-114858085D01*
X129642151Y-114869477D01*
X129617568Y-114873011D01*
X129613854Y-114874322D01*
X129607216Y-114874500D01*
X129542350Y-114874500D01*
X129475311Y-114854815D01*
X129473459Y-114853602D01*
X129379184Y-114790609D01*
X129379172Y-114790602D01*
X129233501Y-114730264D01*
X129233489Y-114730261D01*
X129078845Y-114699500D01*
X129078842Y-114699500D01*
X128921158Y-114699500D01*
X128921155Y-114699500D01*
X128766510Y-114730261D01*
X128766498Y-114730264D01*
X128620827Y-114790602D01*
X128620814Y-114790609D01*
X128489711Y-114878210D01*
X128489707Y-114878213D01*
X128378213Y-114989707D01*
X128378210Y-114989711D01*
X128290609Y-115120814D01*
X128290602Y-115120827D01*
X128230264Y-115266498D01*
X128230261Y-115266510D01*
X128199500Y-115421153D01*
X128199500Y-115578846D01*
X128230261Y-115733489D01*
X128230264Y-115733501D01*
X128290602Y-115879172D01*
X128290609Y-115879185D01*
X128378210Y-116010288D01*
X128378213Y-116010292D01*
X128489707Y-116121786D01*
X128489711Y-116121789D01*
X128620814Y-116209390D01*
X128620827Y-116209397D01*
X128735818Y-116257027D01*
X128766503Y-116269737D01*
X128921153Y-116300499D01*
X128921156Y-116300500D01*
X128921158Y-116300500D01*
X129078844Y-116300500D01*
X129078845Y-116300499D01*
X129233497Y-116269737D01*
X129379179Y-116209394D01*
X129473459Y-116146398D01*
X129540136Y-116125520D01*
X129542350Y-116125500D01*
X138457650Y-116125500D01*
X138524689Y-116145185D01*
X138526541Y-116146398D01*
X138620821Y-116209394D01*
X138620823Y-116209395D01*
X138620827Y-116209397D01*
X138735818Y-116257027D01*
X138766503Y-116269737D01*
X138921153Y-116300499D01*
X138921156Y-116300500D01*
X138921158Y-116300500D01*
X139078844Y-116300500D01*
X139078845Y-116300499D01*
X139233497Y-116269737D01*
X139264182Y-116257026D01*
X139333650Y-116249557D01*
X139396129Y-116280831D01*
X139399316Y-116283906D01*
X139674205Y-116558795D01*
X139707690Y-116620118D01*
X139708141Y-116622285D01*
X139730261Y-116733489D01*
X139730264Y-116733501D01*
X139790602Y-116879172D01*
X139790609Y-116879185D01*
X139844132Y-116959287D01*
X139865010Y-117025965D01*
X139846526Y-117093345D01*
X139794547Y-117140035D01*
X139741030Y-117152178D01*
X127660711Y-117152178D01*
X127600293Y-117164196D01*
X127562581Y-117171697D01*
X127539872Y-117176214D01*
X127539870Y-117176215D01*
X127506529Y-117190025D01*
X127426040Y-117223363D01*
X127426031Y-117223368D01*
X127386300Y-117249916D01*
X127386290Y-117249924D01*
X127379923Y-117254179D01*
X127323589Y-117291820D01*
X127236464Y-117378945D01*
X127236461Y-117378948D01*
X127233272Y-117382136D01*
X127233265Y-117382143D01*
X125941203Y-118674205D01*
X125879880Y-118707690D01*
X125877714Y-118708141D01*
X125766508Y-118730261D01*
X125766498Y-118730264D01*
X125620827Y-118790602D01*
X125620814Y-118790609D01*
X125489711Y-118878210D01*
X125489707Y-118878213D01*
X125378213Y-118989707D01*
X125378210Y-118989711D01*
X125290609Y-119120814D01*
X125290602Y-119120827D01*
X125230264Y-119266498D01*
X125230261Y-119266510D01*
X125199500Y-119421153D01*
X120000500Y-119421153D01*
X120000500Y-93521153D01*
X152199500Y-93521153D01*
X152199500Y-93678846D01*
X152230261Y-93833489D01*
X152230264Y-93833501D01*
X152290602Y-93979172D01*
X152290609Y-93979185D01*
X152378210Y-94110288D01*
X152378213Y-94110292D01*
X152489707Y-94221786D01*
X152489711Y-94221789D01*
X152620814Y-94309390D01*
X152620827Y-94309397D01*
X152766498Y-94369735D01*
X152766503Y-94369737D01*
X152921153Y-94400499D01*
X152921156Y-94400500D01*
X152921158Y-94400500D01*
X153078844Y-94400500D01*
X153078845Y-94400499D01*
X153233497Y-94369737D01*
X153379179Y-94309394D01*
X153473459Y-94246398D01*
X153540136Y-94225520D01*
X153542350Y-94225500D01*
X155442059Y-94225500D01*
X155509098Y-94245185D01*
X155529740Y-94261819D01*
X155639707Y-94371786D01*
X155639711Y-94371789D01*
X155770814Y-94459390D01*
X155770827Y-94459397D01*
X155916498Y-94519735D01*
X155916503Y-94519737D01*
X156071153Y-94550499D01*
X156071156Y-94550500D01*
X156071158Y-94550500D01*
X156228844Y-94550500D01*
X156228845Y-94550499D01*
X156383497Y-94519737D01*
X156529179Y-94459394D01*
X156660289Y-94371789D01*
X156771789Y-94260289D01*
X156859394Y-94129179D01*
X156919737Y-93983497D01*
X156950500Y-93828842D01*
X156950500Y-93671158D01*
X156950500Y-93671155D01*
X156950499Y-93671153D01*
X156919738Y-93516510D01*
X156919737Y-93516503D01*
X156919735Y-93516498D01*
X156859397Y-93370827D01*
X156859390Y-93370814D01*
X156771789Y-93239711D01*
X156771786Y-93239707D01*
X156660292Y-93128213D01*
X156660288Y-93128210D01*
X156529185Y-93040609D01*
X156529172Y-93040602D01*
X156383501Y-92980264D01*
X156383489Y-92980261D01*
X156228845Y-92949500D01*
X156228842Y-92949500D01*
X156071158Y-92949500D01*
X156071156Y-92949500D01*
X155992645Y-92965117D01*
X155957454Y-92972117D01*
X155933264Y-92974500D01*
X153542350Y-92974500D01*
X153475311Y-92954815D01*
X153473459Y-92953602D01*
X153379184Y-92890609D01*
X153379172Y-92890602D01*
X153233501Y-92830264D01*
X153233489Y-92830261D01*
X153078845Y-92799500D01*
X153078842Y-92799500D01*
X152921158Y-92799500D01*
X152921155Y-92799500D01*
X152766510Y-92830261D01*
X152766498Y-92830264D01*
X152620827Y-92890602D01*
X152620814Y-92890609D01*
X152489711Y-92978210D01*
X152489707Y-92978213D01*
X152378213Y-93089707D01*
X152378210Y-93089711D01*
X152290609Y-93220814D01*
X152290602Y-93220827D01*
X152230264Y-93366498D01*
X152230261Y-93366510D01*
X152199500Y-93521153D01*
X120000500Y-93521153D01*
X120000500Y-88381902D01*
X142999500Y-88381902D01*
X142999500Y-88618097D01*
X143036446Y-88851368D01*
X143109433Y-89075996D01*
X143216657Y-89286433D01*
X143355483Y-89477510D01*
X143522490Y-89644517D01*
X143713567Y-89783343D01*
X143812991Y-89834002D01*
X143924003Y-89890566D01*
X143924005Y-89890566D01*
X143924008Y-89890568D01*
X144044412Y-89929689D01*
X144148631Y-89963553D01*
X144381903Y-90000500D01*
X144381908Y-90000500D01*
X144618097Y-90000500D01*
X144851368Y-89963553D01*
X145075992Y-89890568D01*
X145286433Y-89783343D01*
X145477510Y-89644517D01*
X145644517Y-89477510D01*
X145783343Y-89286433D01*
X145890568Y-89075992D01*
X145963553Y-88851368D01*
X145988929Y-88691150D01*
X146000500Y-88618097D01*
X146000500Y-88381902D01*
X145963553Y-88148631D01*
X145890566Y-87924003D01*
X145783342Y-87713566D01*
X145644517Y-87522490D01*
X145477510Y-87355483D01*
X145286433Y-87216657D01*
X145075996Y-87109433D01*
X144851368Y-87036446D01*
X144618097Y-86999500D01*
X144618092Y-86999500D01*
X144381908Y-86999500D01*
X144381903Y-86999500D01*
X144148631Y-87036446D01*
X143924003Y-87109433D01*
X143713566Y-87216657D01*
X143604550Y-87295862D01*
X143522490Y-87355483D01*
X143522488Y-87355485D01*
X143522487Y-87355485D01*
X143355485Y-87522487D01*
X143355485Y-87522488D01*
X143355483Y-87522490D01*
X143295862Y-87604550D01*
X143216657Y-87713566D01*
X143109433Y-87924003D01*
X143036446Y-88148631D01*
X142999500Y-88381902D01*
X120000500Y-88381902D01*
X120000500Y-86624500D01*
X120020185Y-86557461D01*
X120072989Y-86511706D01*
X120124500Y-86500500D01*
X168875500Y-86500500D01*
X168942539Y-86520185D01*
G37*
%TD.AperFunction*%
%TD*%
M02*
