M48
; DRILL file {KiCad 9.0.0} date 2025-05-20T18:18:07-0600
; FORMAT={-:-/ absolute / metric / decimal}
; #@! TF.CreationDate,2025-05-20T18:18:07-06:00
; #@! TF.GenerationSoftware,Kicad,Pcbnew,9.0.0
; #@! TF.FileFunction,Plated,1,2,PTH
FMAT,2
METRIC
; #@! TA.AperFunction,Plated,PTH,ViaDrill
T1C0.300
%
G90
G05
T1
X120.5Y-98.0
X120.75Y-87.25
X123.0Y-113.0
X123.0Y-119.75
X123.75Y-107.5
X124.5Y-94.25
X125.75Y-111.0
X125.75Y-116.0
X126.0Y-119.5
X128.0Y-103.5
X129.0Y-90.25
X129.0Y-115.5
X129.8Y-101.8
X130.5Y-106.25
X130.5Y-112.5
X130.5Y-114.5
X132.0Y-113.5
X134.0Y-111.0
X134.5Y-102.25
X134.5Y-106.75
X135.0Y-108.5
X135.5Y-95.75
X135.75Y-88.5
X136.5Y-105.5
X138.0Y-102.5
X139.0Y-107.0
X139.0Y-114.5
X139.0Y-115.5
X139.5Y-99.5
X140.5Y-116.5
X141.5Y-103.5
X142.0Y-95.0
X142.0Y-96.75
X142.0Y-116.75
X143.0Y-102.0
X144.0Y-95.0
X144.0Y-96.75
X144.0Y-119.0
X145.0Y-100.5
X146.0Y-95.0
X146.0Y-96.75
X146.0Y-99.5
X146.5Y-116.875
X147.5Y-98.0
X147.875Y-115.875
X149.0Y-116.0
X150.25Y-115.75
X151.0Y-107.25
X151.5Y-121.0
X152.75Y-107.5
X152.75Y-108.25
X153.0Y-93.6
X153.5Y-94.75
X153.5Y-97.5
X153.5Y-98.25
X153.5Y-107.5
X153.5Y-108.25
X153.75Y-88.5
X153.75Y-103.5
X153.75Y-116.25
X153.75Y-117.5
X154.04Y-100.46
X154.25Y-107.5
X154.25Y-108.25
X154.4Y-94.75
X154.75Y-97.5
X154.75Y-98.25
X154.75Y-104.25
X155.0Y-101.5
X155.75Y-99.5
X156.15Y-93.75
X156.75Y-98.25
X158.0Y-103.0
X158.5Y-94.0
X158.5Y-94.75
X158.5Y-104.5
X159.25Y-94.0
X159.25Y-94.75
X160.0Y-94.0
X160.0Y-94.75
X161.25Y-95.5
X161.25Y-96.5
X164.5Y-119.5
X164.75Y-121.0
X165.5Y-119.0
X166.25Y-121.0
X166.5Y-94.0
X166.5Y-95.0
X166.5Y-96.0
X167.5Y-94.0
X167.5Y-95.0
X167.5Y-96.0
X167.75Y-103.75
X167.75Y-105.75
X167.75Y-107.75
X167.75Y-118.5
X167.75Y-119.5
X167.75Y-120.5
X168.5Y-87.0
M30
