%TF.GenerationSoftware,KiCad,Pcbnew,9.0.0*%
%TF.CreationDate,2025-05-20T18:18:11-06:00*%
%TF.ProjectId,GB_Card32k,47425f43-6172-4643-9332-6b2e6b696361,rev?*%
%TF.SameCoordinates,Original*%
%TF.FileFunction,Legend,Bot*%
%TF.FilePolarity,Positive*%
%FSLAX46Y46*%
G04 Gerber Fmt 4.6, Leading zero omitted, Abs format (unit mm)*
G04 Created by KiCad (PCBNEW 9.0.0) date 2025-05-20 18:18:11*
%MOMM*%
%LPD*%
G01*
G04 APERTURE LIST*
%ADD10C,0.000000*%
G04 APERTURE END LIST*
D10*
%TO.C,G\u002A\u002A\u002A*%
G36*
X146687672Y-99268493D02*
G01*
X146687672Y-100312329D01*
X146339727Y-100312329D01*
X145991782Y-100312329D01*
X145991782Y-99268493D01*
X145991782Y-98224657D01*
X146339727Y-98224657D01*
X146687672Y-98224657D01*
X146687672Y-99268493D01*
G37*
G36*
X146687672Y-105531507D02*
G01*
X146687672Y-106575342D01*
X146339727Y-106575342D01*
X145991782Y-106575342D01*
X145991782Y-105531507D01*
X145991782Y-104487671D01*
X146339727Y-104487671D01*
X146687672Y-104487671D01*
X146687672Y-105531507D01*
G37*
G36*
X141120549Y-105531507D02*
G01*
X141120549Y-106575342D01*
X140772604Y-106575342D01*
X140424658Y-106575342D01*
X140424658Y-105531507D01*
X140424658Y-104487671D01*
X140772604Y-104487671D01*
X141120549Y-104487671D01*
X141120549Y-105531507D01*
G37*
G36*
X134857535Y-98572603D02*
G01*
X134857535Y-98920548D01*
X134509590Y-98920548D01*
X134161645Y-98920548D01*
X134161645Y-98572603D01*
X134161645Y-98224657D01*
X134509590Y-98224657D01*
X134857535Y-98224657D01*
X134857535Y-98572603D01*
G37*
G36*
X134857535Y-99964383D02*
G01*
X134857535Y-100312329D01*
X134509590Y-100312329D01*
X134161645Y-100312329D01*
X134161645Y-99964383D01*
X134161645Y-99616438D01*
X134509590Y-99616438D01*
X134857535Y-99616438D01*
X134857535Y-99964383D01*
G37*
G36*
X134857535Y-105531507D02*
G01*
X134857535Y-106575342D01*
X134509590Y-106575342D01*
X134161645Y-106575342D01*
X134161645Y-105531507D01*
X134161645Y-104487671D01*
X134509590Y-104487671D01*
X134857535Y-104487671D01*
X134857535Y-105531507D01*
G37*
G36*
X129290412Y-98572603D02*
G01*
X129290412Y-98920548D01*
X128942467Y-98920548D01*
X128594521Y-98920548D01*
X128594521Y-98572603D01*
X128594521Y-98224657D01*
X128942467Y-98224657D01*
X129290412Y-98224657D01*
X129290412Y-98572603D01*
G37*
G36*
X148775343Y-101704109D02*
G01*
X146687672Y-101704109D01*
X144600001Y-101704109D01*
X144600001Y-99268493D01*
X144600001Y-97528767D01*
X145295891Y-97528767D01*
X145295891Y-99268493D01*
X145295891Y-101008219D01*
X146687672Y-101008219D01*
X148079453Y-101008219D01*
X148079453Y-99268493D01*
X148079453Y-97528767D01*
X146687672Y-97528767D01*
X145295891Y-97528767D01*
X144600001Y-97528767D01*
X144600001Y-96832877D01*
X146687672Y-96832877D01*
X148775343Y-96832877D01*
X148775343Y-99268493D01*
X148775343Y-101704109D01*
G37*
G36*
X148775343Y-107967123D02*
G01*
X146687672Y-107967123D01*
X144600001Y-107967123D01*
X144600001Y-105531507D01*
X144600001Y-103791781D01*
X145295891Y-103791781D01*
X145295891Y-105531507D01*
X145295891Y-107271233D01*
X146687672Y-107271233D01*
X148079453Y-107271233D01*
X148079453Y-105531507D01*
X148079453Y-103791781D01*
X146687672Y-103791781D01*
X145295891Y-103791781D01*
X144600001Y-103791781D01*
X144600001Y-103095890D01*
X146687672Y-103095890D01*
X148775343Y-103095890D01*
X148775343Y-105531507D01*
X148775343Y-107967123D01*
G37*
G36*
X136945206Y-107967123D02*
G01*
X134857535Y-107967123D01*
X132769864Y-107967123D01*
X132769864Y-105531507D01*
X132769864Y-103791781D01*
X133465754Y-103791781D01*
X133465754Y-105531507D01*
X133465754Y-107271233D01*
X134857535Y-107271233D01*
X136249316Y-107271233D01*
X136249316Y-105531507D01*
X136249316Y-103791781D01*
X134857535Y-103791781D01*
X133465754Y-103791781D01*
X132769864Y-103791781D01*
X132769864Y-103095890D01*
X134857535Y-103095890D01*
X136945206Y-103095890D01*
X136945206Y-105531507D01*
X136945206Y-107967123D01*
G37*
G36*
X143208220Y-105531507D02*
G01*
X143208220Y-107967123D01*
X140772604Y-107967123D01*
X138336987Y-107967123D01*
X138336987Y-107271233D01*
X138336987Y-106575342D01*
X138684932Y-106575342D01*
X139032878Y-106575342D01*
X139032878Y-106923287D01*
X139032878Y-107271233D01*
X140772604Y-107271233D01*
X142512330Y-107271233D01*
X142512330Y-105531507D01*
X142512330Y-103791781D01*
X141120549Y-103791781D01*
X139728768Y-103791781D01*
X139728768Y-105183561D01*
X139728768Y-106575342D01*
X139380823Y-106575342D01*
X139032878Y-106575342D01*
X139032878Y-104835616D01*
X139032878Y-103095890D01*
X141120549Y-103095890D01*
X143208220Y-103095890D01*
X143208220Y-105531507D01*
G37*
G36*
X161997261Y-101704109D02*
G01*
X159909590Y-101704109D01*
X157821919Y-101704109D01*
X157821919Y-100660274D01*
X157821919Y-100312329D01*
X158517809Y-100312329D01*
X158517809Y-100660274D01*
X158517809Y-101008219D01*
X159909590Y-101008219D01*
X161301371Y-101008219D01*
X161301371Y-99268493D01*
X161301371Y-97528767D01*
X160605480Y-97528767D01*
X159909590Y-97528767D01*
X159909590Y-98920548D01*
X159909590Y-100312329D01*
X159213700Y-100312329D01*
X158517809Y-100312329D01*
X157821919Y-100312329D01*
X157821919Y-99616438D01*
X158517809Y-99616438D01*
X159213700Y-99616438D01*
X159213700Y-98224657D01*
X159213700Y-96832877D01*
X160605480Y-96832877D01*
X161997261Y-96832877D01*
X161997261Y-99268493D01*
X161997261Y-101704109D01*
G37*
G36*
X136945206Y-101704109D02*
G01*
X134857535Y-101704109D01*
X132769864Y-101704109D01*
X132769864Y-99268493D01*
X132769864Y-97528767D01*
X133465754Y-97528767D01*
X133465754Y-98224657D01*
X133465754Y-98920548D01*
X133813700Y-98920548D01*
X134161645Y-98920548D01*
X134161645Y-99268493D01*
X134161645Y-99616438D01*
X133813700Y-99616438D01*
X133465754Y-99616438D01*
X133465754Y-100312329D01*
X133465754Y-101008219D01*
X134857535Y-101008219D01*
X136249316Y-101008219D01*
X136249316Y-99268493D01*
X136249316Y-97528767D01*
X134857535Y-97528767D01*
X133465754Y-97528767D01*
X132769864Y-97528767D01*
X132769864Y-96832877D01*
X134857535Y-96832877D01*
X136945206Y-96832877D01*
X136945206Y-99268493D01*
X136945206Y-101704109D01*
G37*
G36*
X154342467Y-101704109D02*
G01*
X152254795Y-101704109D01*
X150167124Y-101704109D01*
X150167124Y-99268493D01*
X150167124Y-97528767D01*
X150863015Y-97528767D01*
X150863015Y-99268493D01*
X150863015Y-101008219D01*
X151210960Y-101008219D01*
X151558905Y-101008219D01*
X151558905Y-100312329D01*
X151558905Y-99616438D01*
X151906850Y-99616438D01*
X152254795Y-99616438D01*
X152254795Y-100312329D01*
X152254795Y-101008219D01*
X152950686Y-101008219D01*
X153646576Y-101008219D01*
X153646576Y-99268493D01*
X153646576Y-97528767D01*
X152950686Y-97528767D01*
X152254795Y-97528767D01*
X152254795Y-98224657D01*
X152254795Y-98920548D01*
X151906850Y-98920548D01*
X151558905Y-98920548D01*
X151558905Y-98224657D01*
X151558905Y-97528767D01*
X151210960Y-97528767D01*
X150863015Y-97528767D01*
X150167124Y-97528767D01*
X150167124Y-96832877D01*
X152254795Y-96832877D01*
X154342467Y-96832877D01*
X154342467Y-99268493D01*
X154342467Y-101704109D01*
G37*
G36*
X131378083Y-99268493D02*
G01*
X131378083Y-101704109D01*
X129290412Y-101704109D01*
X127202741Y-101704109D01*
X127202741Y-99616438D01*
X127202741Y-97528767D01*
X127550686Y-97528767D01*
X127898631Y-97528767D01*
X127898631Y-98224657D01*
X127898631Y-98920548D01*
X128246576Y-98920548D01*
X128594521Y-98920548D01*
X128594521Y-99268493D01*
X128594521Y-99616438D01*
X128246576Y-99616438D01*
X127898631Y-99616438D01*
X127898631Y-100312329D01*
X127898631Y-101008219D01*
X128246576Y-101008219D01*
X128594521Y-101008219D01*
X128594521Y-100312329D01*
X128594521Y-99616438D01*
X128942467Y-99616438D01*
X129290412Y-99616438D01*
X129290412Y-100312329D01*
X129290412Y-101008219D01*
X129986302Y-101008219D01*
X130682193Y-101008219D01*
X130682193Y-99268493D01*
X130682193Y-97528767D01*
X129290412Y-97528767D01*
X127898631Y-97528767D01*
X127898631Y-97180822D01*
X127898631Y-96832877D01*
X129638357Y-96832877D01*
X131378083Y-96832877D01*
X131378083Y-99268493D01*
G37*
G36*
X167564384Y-101704109D02*
G01*
X165476713Y-101704109D01*
X163389042Y-101704109D01*
X163389042Y-100660274D01*
X163389042Y-99616438D01*
X163736987Y-99616438D01*
X164084932Y-99616438D01*
X164084932Y-99268493D01*
X164084932Y-98920548D01*
X163736987Y-98920548D01*
X163389042Y-98920548D01*
X163389042Y-97876712D01*
X163389042Y-97528767D01*
X164084932Y-97528767D01*
X164084932Y-97876712D01*
X164084932Y-98224657D01*
X164780823Y-98224657D01*
X165476713Y-98224657D01*
X165476713Y-98572603D01*
X165476713Y-98920548D01*
X165128768Y-98920548D01*
X164780823Y-98920548D01*
X164780823Y-99268493D01*
X164780823Y-99616438D01*
X165128768Y-99616438D01*
X165476713Y-99616438D01*
X165476713Y-99964383D01*
X165476713Y-100312329D01*
X164780823Y-100312329D01*
X164084932Y-100312329D01*
X164084932Y-100660274D01*
X164084932Y-101008219D01*
X165476713Y-101008219D01*
X166868494Y-101008219D01*
X166868494Y-99268493D01*
X166868494Y-97528767D01*
X165476713Y-97528767D01*
X164084932Y-97528767D01*
X163389042Y-97528767D01*
X163389042Y-96832877D01*
X165476713Y-96832877D01*
X167564384Y-96832877D01*
X167564384Y-99268493D01*
X167564384Y-101704109D01*
G37*
G36*
X125810960Y-101704109D02*
G01*
X123723289Y-101704109D01*
X121635617Y-101704109D01*
X121635617Y-100660274D01*
X121635617Y-99616438D01*
X121983563Y-99616438D01*
X122331508Y-99616438D01*
X122331508Y-99268493D01*
X122331508Y-98920548D01*
X121983563Y-98920548D01*
X121635617Y-98920548D01*
X121635617Y-97876712D01*
X121635617Y-97528767D01*
X122331508Y-97528767D01*
X122331508Y-97876712D01*
X122331508Y-98224657D01*
X123027398Y-98224657D01*
X123723289Y-98224657D01*
X123723289Y-98572603D01*
X123723289Y-98920548D01*
X123375343Y-98920548D01*
X123027398Y-98920548D01*
X123027398Y-99268493D01*
X123027398Y-99616438D01*
X123375343Y-99616438D01*
X123723289Y-99616438D01*
X123723289Y-99964383D01*
X123723289Y-100312329D01*
X123027398Y-100312329D01*
X122331508Y-100312329D01*
X122331508Y-100660274D01*
X122331508Y-101008219D01*
X123723289Y-101008219D01*
X125115069Y-101008219D01*
X125115069Y-99268493D01*
X125115069Y-97528767D01*
X123723289Y-97528767D01*
X122331508Y-97528767D01*
X121635617Y-97528767D01*
X121635617Y-96832877D01*
X123723289Y-96832877D01*
X125810960Y-96832877D01*
X125810960Y-99268493D01*
X125810960Y-101704109D01*
G37*
G36*
X154342467Y-107967123D02*
G01*
X152602741Y-107967123D01*
X150863015Y-107967123D01*
X150863015Y-107619178D01*
X150863015Y-107271233D01*
X150515069Y-107271233D01*
X150167124Y-107271233D01*
X150167124Y-106227397D01*
X150167124Y-105879452D01*
X150863015Y-105879452D01*
X150863015Y-106227397D01*
X150863015Y-106575342D01*
X151210960Y-106575342D01*
X151558905Y-106575342D01*
X151558905Y-106923287D01*
X151558905Y-107271233D01*
X152602741Y-107271233D01*
X153646576Y-107271233D01*
X153646576Y-106923287D01*
X153646576Y-106575342D01*
X152602741Y-106575342D01*
X151558905Y-106575342D01*
X151558905Y-106227397D01*
X151558905Y-105879452D01*
X151210960Y-105879452D01*
X150863015Y-105879452D01*
X150167124Y-105879452D01*
X150167124Y-105183561D01*
X150515069Y-105183561D01*
X150863015Y-105183561D01*
X150863015Y-104835616D01*
X150863015Y-104487671D01*
X151558905Y-104487671D01*
X152254795Y-104487671D01*
X152254795Y-104835616D01*
X152254795Y-105183561D01*
X151906850Y-105183561D01*
X151558905Y-105183561D01*
X151558905Y-105531507D01*
X151558905Y-105879452D01*
X152602741Y-105879452D01*
X153646576Y-105879452D01*
X153646576Y-105183561D01*
X153646576Y-104487671D01*
X153994521Y-104487671D01*
X154342467Y-104487671D01*
X154342467Y-106227397D01*
X154342467Y-106575342D01*
X154342467Y-107967123D01*
G37*
G36*
X152950686Y-103443835D02*
G01*
X152950686Y-103791781D01*
X151906850Y-103791781D01*
X150863015Y-103791781D01*
X150863015Y-104139726D01*
X150863015Y-104487671D01*
X150515069Y-104487671D01*
X150167124Y-104487671D01*
X150167124Y-103791781D01*
X150167124Y-103095890D01*
X151558905Y-103095890D01*
X152950686Y-103095890D01*
X152950686Y-103443835D01*
G37*
G36*
X153298631Y-103791781D02*
G01*
X153646576Y-103791781D01*
X153646576Y-104139726D01*
X153646576Y-104487671D01*
X153298631Y-104487671D01*
X152950686Y-104487671D01*
X152950686Y-104139726D01*
X152950686Y-103791781D01*
X153298631Y-103791781D01*
G37*
G36*
X139728768Y-97180822D02*
G01*
X139728768Y-97528767D01*
X139380823Y-97528767D01*
X139032878Y-97528767D01*
X139032878Y-99268493D01*
X139032878Y-101008219D01*
X139380823Y-101008219D01*
X139728768Y-101008219D01*
X139728768Y-100312329D01*
X139728768Y-99616438D01*
X140076713Y-99616438D01*
X140424658Y-99616438D01*
X140424658Y-99964383D01*
X140424658Y-100312329D01*
X140772604Y-100312329D01*
X141120549Y-100312329D01*
X141120549Y-99964383D01*
X141120549Y-99616438D01*
X141468494Y-99616438D01*
X141816439Y-99616438D01*
X141816439Y-100312329D01*
X141816439Y-101008219D01*
X142164384Y-101008219D01*
X142512330Y-101008219D01*
X142512330Y-99268493D01*
X142512330Y-97528767D01*
X142164384Y-97528767D01*
X141816439Y-97528767D01*
X141816439Y-97180822D01*
X141816439Y-96832877D01*
X142512330Y-96832877D01*
X143208220Y-96832877D01*
X143208220Y-99268493D01*
X143208220Y-101704109D01*
X142164384Y-101704109D01*
X141120549Y-101704109D01*
X141120549Y-101356164D01*
X141120549Y-101008219D01*
X140772604Y-101008219D01*
X140424658Y-101008219D01*
X140424658Y-101356164D01*
X140424658Y-101704109D01*
X139380823Y-101704109D01*
X138336987Y-101704109D01*
X138336987Y-99268493D01*
X138336987Y-96832877D01*
X139032878Y-96832877D01*
X139728768Y-96832877D01*
X139728768Y-97180822D01*
G37*
G36*
X140076713Y-97528767D02*
G01*
X140424658Y-97528767D01*
X140424658Y-97876712D01*
X140424658Y-98224657D01*
X140772604Y-98224657D01*
X141120549Y-98224657D01*
X141120549Y-97876712D01*
X141120549Y-97528767D01*
X141468494Y-97528767D01*
X141816439Y-97528767D01*
X141816439Y-97876712D01*
X141816439Y-98224657D01*
X141468494Y-98224657D01*
X141120549Y-98224657D01*
X141120549Y-98572603D01*
X141120549Y-98920548D01*
X140772604Y-98920548D01*
X140424658Y-98920548D01*
X140424658Y-98572603D01*
X140424658Y-98224657D01*
X140076713Y-98224657D01*
X139728768Y-98224657D01*
X139728768Y-97876712D01*
X139728768Y-97528767D01*
X140076713Y-97528767D01*
G37*
%TD*%
M02*
